<svg xmlns="http://www.w3.org/2000/svg" xmlns:xlink="http://www.w3.org/1999/xlink" contentStyleType="text/css" data-diagram-type="DESCRIPTION" height="1010px" preserveAspectRatio="none" style="width:1165px;height:1010px;background:#FFFFFF;" version="1.1" viewBox="0 0 1165 1010" width="1165px" zoomAndPan="magnify"><defs/><g><!--cluster Sistema--><g class="cluster" data-entity="Sistema" data-source-line="7" data-uid="ent0003" id="cluster_Sistema"><path d="M110,6.602 L166.3978,6.602 A3.75,3.75 0 0 1 168.8978,9.102 L175.8978,31.6699 L1155.85,31.6699 A2.5,2.5 0 0 1 1158.35,34.1699 L1158.35,1001.102 A2.5,2.5 0 0 1 1155.85,1003.602 L110,1003.602 A2.5,2.5 0 0 1 107.5,1001.102 L107.5,9.102 A2.5,2.5 0 0 1 110,6.602" fill="none" style="stroke:#000000;stroke-width:1.5;"/><line style="stroke:#000000;stroke-width:1.5;" x1="107.5" x2="175.8978" y1="31.6699" y2="31.6699"/><text fill="#000000" font-family="sans-serif" font-size="14" font-weight="bold" lengthAdjust="spacing" textLength="55.3978" x="111.5" y="23.5679">Sistema</text></g><!--entity UC1--><g class="entity" data-entity="UC1" data-source-line="8" data-uid="ent0004" id="entity_UC1"><ellipse cx="1023.0111" cy="619.6002" fill="#F1F1F1" rx="119.3411" ry="26.2682" style="stroke:#181818;stroke-width:0.5;"/><text fill="#000000" font-family="sans-serif" font-size="14" lengthAdjust="spacing" textLength="212.2532" x="916.8846" y="625.6342">Visualizzazione della home page</text></g><!--entity UC2--><g class="entity" data-entity="UC2" data-source-line="9" data-uid="ent0005" id="entity_UC2"><ellipse cx="644.7647" cy="619.5989" fill="#F1F1F1" rx="119.0347" ry="26.2069" style="stroke:#181818;stroke-width:0.5;"/><text fill="#000000" font-family="sans-serif" font-size="14" lengthAdjust="spacing" textLength="211.5812" x="538.9741" y="625.6329">Visualizzazione del catalogo libri</text></g><!--entity UC3--><g class="entity" data-entity="UC3" data-source-line="10" data-uid="ent0006" id="entity_UC3"><ellipse cx="254.6661" cy="70.6032" fill="#F1F1F1" rx="117.5561" ry="25.9112" style="stroke:#181818;stroke-width:0.5;"/><text fill="#000000" font-family="sans-serif" font-size="14" lengthAdjust="spacing" textLength="208.3332" x="150.4995" y="76.6372">Visualizzazione dei prestiti attivi</text></g><!--entity UC4--><g class="entity" data-entity="UC4" data-source-line="11" data-uid="ent0007" id="entity_UC4"><ellipse cx="644.7614" cy="165.6043" fill="#F1F1F1" rx="139.9114" ry="30.3823" style="stroke:#181818;stroke-width:0.5;"/><text fill="#000000" font-family="sans-serif" font-size="14" lengthAdjust="spacing" textLength="256.689" x="516.4169" y="171.6382">Visualizzazione dello storico dei prestiti</text></g><!--entity UC5--><g class="entity" data-entity="UC5" data-source-line="12" data-uid="ent0008" id="entity_UC5"><ellipse cx="644.7577" cy="316.5995" fill="#F1F1F1" rx="137.2377" ry="29.8475" style="stroke:#181818;stroke-width:0.5;"/><text fill="#000000" font-family="sans-serif" font-size="14" lengthAdjust="spacing" textLength="250.977" x="519.2692" y="322.6335">Visualizzazione dell'elenco degli utenti</text></g><!--entity UC6--><g class="entity" data-entity="UC6" data-source-line="13" data-uid="ent0009" id="entity_UC6"><ellipse cx="254.6713" cy="154.6022" fill="#F1F1F1" rx="101.8013" ry="22.7603" style="stroke:#181818;stroke-width:0.5;"/><text fill="#000000" font-family="sans-serif" font-size="14" lengthAdjust="spacing" textLength="173.0813" x="168.1306" y="160.6362">Registrazione di un utente</text></g><!--entity UC7--><g class="entity" data-entity="UC7" data-source-line="14" data-uid="ent0010" id="entity_UC7"><ellipse cx="254.669" cy="236.5998" fill="#F1F1F1" rx="110.439" ry="24.4878" style="stroke:#181818;stroke-width:0.5;"/><text fill="#000000" font-family="sans-serif" font-size="14" lengthAdjust="spacing" textLength="192.5692" x="158.3844" y="242.6337">Modifica dei dati di un utente</text></g><!--entity UC8--><g class="entity" data-entity="UC8" data-source-line="15" data-uid="ent0011" id="entity_UC8"><ellipse cx="254.6663" cy="316.5972" fill="#F1F1F1" rx="93.0263" ry="21.0053" style="stroke:#181818;stroke-width:0.5;"/><text fill="#000000" font-family="sans-serif" font-size="14" lengthAdjust="spacing" textLength="152.7394" x="178.2966" y="322.6312">Rimozione di un utente</text></g><!--entity UC9--><g class="entity" data-entity="UC9" data-source-line="16" data-uid="ent0012" id="entity_UC9"><ellipse cx="254.6743" cy="395.6048" fill="#F1F1F1" rx="105.3143" ry="23.4629" style="stroke:#181818;stroke-width:0.5;"/><text fill="#000000" font-family="sans-serif" font-size="14" lengthAdjust="spacing" textLength="181.0613" x="164.1436" y="401.6388">Registrazione di un prestito</text></g><!--entity UC10--><g class="entity" data-entity="UC10" data-source-line="17" data-uid="ent0013" id="entity_UC10"><ellipse cx="254.6688" cy="474.6057" fill="#F1F1F1" rx="92.4688" ry="20.8938" style="stroke:#181818;stroke-width:0.5;"/><text fill="#000000" font-family="sans-serif" font-size="14" lengthAdjust="spacing" textLength="151.4234" x="178.9571" y="480.6397">Restituzione di un libro</text></g><!--entity UC11--><g class="entity" data-entity="UC11" data-source-line="18" data-uid="ent0014" id="entity_UC11"><ellipse cx="254.6691" cy="546.605" fill="#F1F1F1" rx="68.0691" ry="16.4831" style="stroke:#181818;stroke-width:0.5;"/><text fill="#000000" font-family="sans-serif" font-size="14" lengthAdjust="spacing" textLength="92.0216" x="208.6583" y="552.639">Ricerca di libri</text></g><!--entity UC12--><g class="entity" data-entity="UC12" data-source-line="19" data-uid="ent0015" id="entity_UC12"><ellipse cx="254.67" cy="619.604" fill="#F1F1F1" rx="96.11" ry="21.622" style="stroke:#181818;stroke-width:0.5;"/><text fill="#000000" font-family="sans-serif" font-size="14" lengthAdjust="spacing" textLength="159.9634" x="174.6884" y="625.6379">Registrazione di un libro</text></g><!--entity UC13--><g class="entity" data-entity="UC13" data-source-line="20" data-uid="ent0016" id="entity_UC13"><ellipse cx="254.6727" cy="699.6025" fill="#F1F1F1" rx="104.6027" ry="23.3205" style="stroke:#181818;stroke-width:0.5;"/><text fill="#000000" font-family="sans-serif" font-size="14" lengthAdjust="spacing" textLength="179.4513" x="164.947" y="705.6365">Modifica dei dati di un libro</text></g><!--entity UC14--><g class="entity" data-entity="UC14" data-source-line="21" data-uid="ent0017" id="entity_UC14"><ellipse cx="254.6729" cy="786.6066" fill="#F1F1F1" rx="131.1729" ry="28.6346" style="stroke:#181818;stroke-width:0.5;"/><text fill="#000000" font-family="sans-serif" font-size="14" lengthAdjust="spacing" textLength="237.9571" x="135.6944" y="792.6405">Eliminazione di un libro dal catalogo</text></g><!--entity UC15--><g class="entity" data-entity="UC15" data-source-line="22" data-uid="ent0018" id="entity_UC15"><ellipse cx="254.6687" cy="875.5997" fill="#F1F1F1" rx="114.3387" ry="25.2677" style="stroke:#181818;stroke-width:0.5;"/><text fill="#000000" font-family="sans-serif" font-size="14" lengthAdjust="spacing" textLength="201.2352" x="154.0511" y="881.6337">Salvataggio dell'archivio su file</text></g><!--entity UC16--><g class="entity" data-entity="UC16" data-source-line="23" data-uid="ent0019" id="entity_UC16"><ellipse cx="254.6739" cy="961.6008" fill="#F1F1F1" rx="118.2439" ry="26.0488" style="stroke:#181818;stroke-width:0.5;"/><text fill="#000000" font-family="sans-serif" font-size="14" lengthAdjust="spacing" textLength="209.8452" x="149.7513" y="967.6347">Caricamento dell'archivio da file</text></g><!--entity G--><g class="entity" data-entity="G" data-source-line="5" data-uid="ent0002" id="entity_G"><ellipse cx="33" cy="495.072" fill="#F1F1F1" rx="16" ry="16" style="stroke:#181818;stroke-width:0.5;"/><path d="M33,515.072 C37,515.072 40,515.072 44,511.072 C52,511.072 60,519.072 60,527.072 L60,531.072 C60,535.072 56,539.072 52,539.072 L14,539.072 C10,539.072 6,535.072 6,531.072 L6,527.072 C6,519.072 14,511.072 22,511.072 C26,515.072 29,515.072 33,515.072" fill="#F1F1F1" style="stroke:#181818;stroke-width:0.5;"/><text fill="#000000" font-family="sans-serif" font-size="14" lengthAdjust="spacing" textLength="51.9958" x="7.0021" y="554.5379">Gestore</text></g><!--link UC2 to UC1--><g class="link" data-entity-1="UC2" data-entity-2="UC1" data-source-line="26" data-uid="lnk20" id="link_UC2_UC1"><path d="M764.29,619.602 C808.66,619.602 853.05,619.602 897.43,619.602" fill="none" id="UC2-to-UC1" style="stroke:#181818;stroke-width:1;stroke-dasharray:7,7;"/><polygon fill="#181818" points="903.43,619.602,894.43,615.602,898.43,619.602,894.43,623.602,903.43,619.602" style="stroke:#181818;stroke-width:1;"/><text fill="#000000" font-family="sans-serif" font-size="13" lengthAdjust="spacing" textLength="57.5771" x="815.67" y="615.499">&#171;include&#187;</text></g><!--link UC5 to UC1--><g class="link" data-entity-1="UC5" data-entity-2="UC1" data-source-line="27" data-uid="lnk21" id="link_UC5_UC1"><path d="M681.83,345.652 C755.13,404.682 915.7265,534.0193 985.4065,590.1193" fill="none" id="UC5-to-UC1" style="stroke:#181818;stroke-width:1;stroke-dasharray:7,7;"/><polygon fill="#181818" points="990.08,593.882,985.5782,585.1222,986.1854,590.7464,980.5612,591.3536,990.08,593.882" style="stroke:#181818;stroke-width:1;"/><text fill="#000000" font-family="sans-serif" font-size="13" lengthAdjust="spacing" textLength="57.5771" x="815.67" y="454.909">&#171;include&#187;</text></g><!--link UC4 to UC1--><g class="link" data-entity-1="UC4" data-entity-2="UC1" data-source-line="28" data-uid="lnk22" id="link_UC4_UC1"><path d="M691.99,194.482 C720.59,213.672 757.01,240.612 784.67,269.602 C886.8,376.622 972.3556,526.729 1005.3656,588.039" fill="none" id="UC4-to-UC1" style="stroke:#181818;stroke-width:1;stroke-dasharray:7,7;"/><polygon fill="#181818" points="1008.21,593.322,1007.4654,583.5013,1005.8397,588.9195,1000.4215,587.2938,1008.21,593.322" style="stroke:#181818;stroke-width:1;"/><text fill="#000000" font-family="sans-serif" font-size="13" lengthAdjust="spacing" textLength="57.5771" x="815.67" y="299.479">&#171;include&#187;</text></g><!--link UC15 to UC1--><g class="link" data-entity-1="UC15" data-entity-2="UC1" data-source-line="29" data-uid="lnk23" id="link_UC15_UC1"><path d="M319.91,854.442 C340.93,847.502 364.39,839.742 385.85,832.602 C594.18,763.322 834.9326,682.4934 950.4126,643.6834" fill="none" id="UC15-to-UC1" style="stroke:#181818;stroke-width:1;stroke-dasharray:7,7;"/><polygon fill="#181818" points="956.1,641.772,946.2946,640.8475,951.3605,643.3648,948.8432,648.4307,956.1,641.772" style="stroke:#181818;stroke-width:1;"/><text fill="#000000" font-family="sans-serif" font-size="13" lengthAdjust="spacing" textLength="57.5771" x="616.26" y="698.039">&#171;include&#187;</text></g><!--link UC16 to UC1--><g class="link" data-entity-1="UC16" data-entity-2="UC1" data-source-line="30" data-uid="lnk24" id="link_UC16_UC1"><path d="M355.39,947.552 C465.36,929.152 645.19,890.312 784.67,817.602 C873.17,771.462 954.2381,692.2121 994.2081,649.9321" fill="none" id="UC16-to-UC1" style="stroke:#181818;stroke-width:1;stroke-dasharray:7,7;"/><polygon fill="#181818" points="998.33,645.572,989.2405,649.3642,994.8951,649.2054,995.0539,654.86,998.33,645.572" style="stroke:#181818;stroke-width:1;"/><text fill="#000000" font-family="sans-serif" font-size="13" lengthAdjust="spacing" textLength="57.5771" x="616.26" y="813.499">&#171;include&#187;</text></g><!--link UC3 to UC4--><g class="link" data-entity-1="UC3" data-entity-2="UC4" data-source-line="32" data-uid="lnk25" id="link_UC3_UC4"><path d="M334.68,89.942 C397.17,105.242 467.1058,122.3638 533.0258,138.4938" fill="none" id="UC3-to-UC4" style="stroke:#181818;stroke-width:1;"/><polygon fill="none" points="550.51,142.772,534.4519,132.6657,531.5997,144.3218,550.51,142.772" style="stroke:#181818;stroke-width:1;"/></g><!--link UC6 to UC5--><g class="link" data-entity-1="UC6" data-entity-2="UC5" data-source-line="34" data-uid="lnk26" id="link_UC6_UC5"><path d="M320.19,172.432 C341.33,178.802 364.8,186.442 385.85,194.602 C458.58,222.812 534.0994,259.7573 585.5594,286.1073" fill="none" id="UC6-to-UC5" style="stroke:#181818;stroke-width:1;stroke-dasharray:7,7;"/><polygon fill="#181818" points="590.9,288.842,584.7122,281.1796,586.4495,286.5631,581.066,288.3004,590.9,288.842" style="stroke:#181818;stroke-width:1;"/><text fill="#000000" font-family="sans-serif" font-size="13" lengthAdjust="spacing" textLength="57.5771" x="416.85" y="205.059">&#171;include&#187;</text></g><!--link UC7 to UC5--><g class="link" data-entity-1="UC7" data-entity-2="UC5" data-source-line="35" data-uid="lnk27" id="link_UC7_UC5"><path d="M336.56,253.272 C396.87,265.712 473.7236,281.5504 538.1336,294.8304" fill="none" id="UC7-to-UC5" style="stroke:#181818;stroke-width:1;stroke-dasharray:7,7;"/><polygon fill="#181818" points="544.01,296.042,536.0031,290.307,539.113,295.0323,534.3877,298.1422,544.01,296.042" style="stroke:#181818;stroke-width:1;"/><text fill="#000000" font-family="sans-serif" font-size="13" lengthAdjust="spacing" textLength="57.5771" x="416.85" y="267.709">&#171;include&#187;</text></g><!--link UC8 to UC5--><g class="link" data-entity-1="UC8" data-entity-2="UC5" data-source-line="36" data-uid="lnk28" id="link_UC8_UC5"><path d="M348.14,316.602 C395.66,316.602 448.52,316.602 501.17,316.602" fill="none" id="UC8-to-UC5" style="stroke:#181818;stroke-width:1;stroke-dasharray:7,7;"/><polygon fill="#181818" points="507.17,316.602,498.17,312.602,502.17,316.602,498.17,320.602,507.17,316.602" style="stroke:#181818;stroke-width:1;"/><text fill="#000000" font-family="sans-serif" font-size="13" lengthAdjust="spacing" textLength="57.5771" x="416.85" y="312.499">&#171;include&#187;</text></g><!--link UC9 to UC5--><g class="link" data-entity-1="UC9" data-entity-2="UC5" data-source-line="37" data-uid="lnk29" id="link_UC9_UC5"><path d="M333.74,379.712 C394.06,367.432 472.1106,351.5491 537.4306,338.2491" fill="none" id="UC9-to-UC5" style="stroke:#181818;stroke-width:1;stroke-dasharray:7,7;"/><polygon fill="#181818" points="543.31,337.052,533.6929,334.9281,538.4105,338.0496,535.289,342.7672,543.31,337.052" style="stroke:#181818;stroke-width:1;"/><text fill="#000000" font-family="sans-serif" font-size="13" lengthAdjust="spacing" textLength="57.5771" x="416.85" y="347.269">&#171;include&#187;</text></g><!--link UC10 to UC2--><g class="link" data-entity-1="UC10" data-entity-2="UC2" data-source-line="39" data-uid="lnk30" id="link_UC10_UC2"><path d="M315.73,490.652 C337.93,496.972 363.2,504.622 385.85,512.602 C458.09,538.042 533.915,570.41 585.585,593.32" fill="none" id="UC10-to-UC2" style="stroke:#181818;stroke-width:1;stroke-dasharray:7,7;"/><polygon fill="#181818" points="591.07,595.752,584.4638,588.4473,586.4992,593.7253,581.2211,595.7607,591.07,595.752" style="stroke:#181818;stroke-width:1;"/><text fill="#000000" font-family="sans-serif" font-size="13" lengthAdjust="spacing" textLength="57.5771" x="416.85" y="521.509">&#171;include&#187;</text></g><!--link UC11 to UC2--><g class="link" data-entity-1="UC11" data-entity-2="UC2" data-source-line="40" data-uid="lnk31" id="link_UC11_UC2"><path d="M309.63,556.752 C372.53,568.582 471.5835,587.2122 547.0835,601.4222" fill="none" id="UC11-to-UC2" style="stroke:#181818;stroke-width:1;stroke-dasharray:7,7;"/><polygon fill="#181818" points="552.98,602.532,544.8752,596.9363,548.0663,601.6072,543.3954,604.7983,552.98,602.532" style="stroke:#181818;stroke-width:1;"/><text fill="#000000" font-family="sans-serif" font-size="13" lengthAdjust="spacing" textLength="57.5771" x="416.85" y="574.629">&#171;include&#187;</text></g><!--link UC12 to UC2--><g class="link" data-entity-1="UC12" data-entity-2="UC2" data-source-line="41" data-uid="lnk32" id="link_UC12_UC2"><path d="M351.11,619.602 C403.73,619.602 463.54,619.602 519.42,619.602" fill="none" id="UC12-to-UC2" style="stroke:#181818;stroke-width:1;stroke-dasharray:7,7;"/><polygon fill="#181818" points="525.42,619.602,516.42,615.602,520.42,619.602,516.42,623.602,525.42,619.602" style="stroke:#181818;stroke-width:1;"/><text fill="#000000" font-family="sans-serif" font-size="13" lengthAdjust="spacing" textLength="57.5771" x="416.85" y="615.499">&#171;include&#187;</text></g><!--link UC13 to UC2--><g class="link" data-entity-1="UC13" data-entity-2="UC2" data-source-line="42" data-uid="lnk33" id="link_UC13_UC2"><path d="M332.81,683.702 C397.36,670.392 483.5437,652.6341 550.7337,638.7741" fill="none" id="UC13-to-UC2" style="stroke:#181818;stroke-width:1;stroke-dasharray:7,7;"/><polygon fill="#181818" points="556.61,637.562,546.9875,635.4627,551.7131,638.5721,548.6037,643.2977,556.61,637.562" style="stroke:#181818;stroke-width:1;"/><text fill="#000000" font-family="sans-serif" font-size="13" lengthAdjust="spacing" textLength="57.5771" x="416.85" y="650.709">&#171;include&#187;</text></g><!--link UC14 to UC2--><g class="link" data-entity-1="UC14" data-entity-2="UC2" data-source-line="43" data-uid="lnk34" id="link_UC14_UC2"><path d="M328.11,762.432 C347.04,755.732 367.33,748.192 385.85,740.602 C460.44,710.012 539.2282,671.9948 590.5382,646.4648" fill="none" id="UC14-to-UC2" style="stroke:#181818;stroke-width:1;stroke-dasharray:7,7;"/><polygon fill="#181818" points="595.91,643.792,586.0704,644.22,591.4335,646.0193,589.6342,651.3824,595.91,643.792" style="stroke:#181818;stroke-width:1;"/><text fill="#000000" font-family="sans-serif" font-size="13" lengthAdjust="spacing" textLength="57.5771" x="416.85" y="698.959">&#171;include&#187;</text></g><!--link G to UC3--><g class="link" data-entity-1="G" data-entity-2="UC3" data-source-line="45" data-uid="lnk35" id="link_G_UC3"><path d="M35.19,478.402 C38.7,387.132 51.99,168.032 99.5,114.602 C112.91,99.522 131.09,89.452 150.26,82.772" fill="none" id="G-UC3" style="stroke:#181818;stroke-width:1;"/></g><!--link G to UC6--><g class="link" data-entity-1="G" data-entity-2="UC6" data-source-line="46" data-uid="lnk36" id="link_G_UC6"><path d="M36.9,478.202 C43.3,400.672 61.17,235.072 99.5,194.602 C115,178.242 136.25,168.242 158.03,162.212" fill="none" id="G-UC6" style="stroke:#181818;stroke-width:1;"/></g><!--link G to UC7--><g class="link" data-entity-1="G" data-entity-2="UC7" data-source-line="47" data-uid="lnk37" id="link_G_UC7"><path d="M33.34,478.472 C34.72,425.142 45.39,331.412 99.5,277.602 C114.33,262.852 133.82,253.242 153.93,247.012" fill="none" id="G-UC7" style="stroke:#181818;stroke-width:1;"/></g><!--link G to UC8--><g class="link" data-entity-1="G" data-entity-2="UC8" data-source-line="48" data-uid="lnk38" id="link_G_UC8"><path d="M39.52,478.172 C46.78,440.732 63.19,386.202 99.5,354.602 C118.01,338.492 142.28,328.992 166.07,323.452" fill="none" id="G-UC8" style="stroke:#181818;stroke-width:1;"/></g><!--link G to UC9--><g class="link" data-entity-1="G" data-entity-2="UC9" data-source-line="49" data-uid="lnk39" id="link_G_UC9"><path d="M58.15,478.432 C69.05,463.332 83.18,447.262 99.5,436.602 C119.45,423.582 143.39,414.682 166.39,408.602" fill="none" id="G-UC9" style="stroke:#181818;stroke-width:1;"/></g><!--link G to UC10--><g class="link" data-entity-1="G" data-entity-2="UC10" data-source-line="50" data-uid="lnk40" id="link_G_UC10"><path d="M60.94,511.572 C70.27,509.232 80.82,506.692 90.5,504.602 C119.64,498.322 151.89,492.212 179.97,487.162" fill="none" id="G-UC10" style="stroke:#181818;stroke-width:1;"/></g><!--link G to UC11--><g class="link" data-entity-1="G" data-entity-2="UC11" data-source-line="51" data-uid="lnk41" id="link_G_UC11"><path d="M60.94,522.032 C93.82,526.222 150.4,533.442 193.77,538.972" fill="none" id="G-UC11" style="stroke:#181818;stroke-width:1;"/></g><!--link G to UC12--><g class="link" data-entity-1="G" data-entity-2="UC12" data-source-line="52" data-uid="lnk42" id="link_G_UC12"><path d="M60.76,549.922 C71.75,561.052 85.23,572.752 99.5,580.602 C122.24,593.112 149.07,601.692 173.91,607.542" fill="none" id="G-UC12" style="stroke:#181818;stroke-width:1;"/></g><!--link G to UC13--><g class="link" data-entity-1="G" data-entity-2="UC13" data-source-line="53" data-uid="lnk43" id="link_G_UC13"><path d="M42.96,559.042 C52.02,590.602 69.14,633.212 99.5,658.602 C117.03,673.262 139.27,682.732 161.37,688.832" fill="none" id="G-UC13" style="stroke:#181818;stroke-width:1;"/></g><!--link G to UC14--><g class="link" data-entity-1="G" data-entity-2="UC14" data-source-line="54" data-uid="lnk44" id="link_G_UC14"><path d="M34.77,558.812 C37.91,608.262 50.7,691.652 99.5,740.602 C112.61,753.752 129.32,763.182 146.86,769.922" fill="none" id="G-UC14" style="stroke:#181818;stroke-width:1;"/></g><!--link G to UC15--><g class="link" data-entity-1="G" data-entity-2="UC15" data-source-line="55" data-uid="lnk45" id="link_G_UC15"><path d="M37.25,558.872 C44.15,634.412 62.73,793.312 99.5,832.602 C113.55,847.612 132.36,857.542 152,864.072" fill="none" id="G-UC15" style="stroke:#181818;stroke-width:1;"/></g><!--link G to UC16--><g class="link" data-entity-1="G" data-entity-2="UC16" data-source-line="56" data-uid="lnk46" id="link_G_UC16"><path d="M35.25,559.102 C38.88,649.922 52.37,865.992 99.5,918.602 C112.67,933.292 130.39,943.152 149.12,949.712" fill="none" id="G-UC16" style="stroke:#181818;stroke-width:1;"/></g><!--SRC=[ZPJ1Rjim38RlUWgYbvrQr4xY94EHIp7ajCk2xix9Z4DKjW9PRj5iU_VIhkNDpWJF5__6pu-aHCBrCrTdT5W2Qc_TmRyP0dobsfQabA6Z1s_1SN7oaBCZxTbMIdN1iATQNX9VmrwfC-fdB0WEN7ig4NugaAUfIMDDSFETwmODNovuaHG4EHc3S98wS1Rifitoz9ZCGg3Hex651SC_7FTSEiSnd9sqovu1lUUN02xckxJG7fEr7QNf-UKy_uaCLHrT68R6KpNGgp7zZGgvF1TO2Qu-uiFrPEFuhpRd8sli6ijHplOFPZsfmQMDvj_CzzEVt_R4TagqPlCtq8ufH2VtqsOqkRP_7aqpIURx6ALD_-zUHinaybyCbrnTbn3-pyu5TZBr0veNYIWAjXyJHwTFicEoEGqSsGpRFPdt8yfQOIa3c78vZhXC_LPAjXpkxdRjDto6XmUkj6boskt4MKMTPTH9MYZcPJ5Fp0NStlxQTSilNrbVO7MLP1rrDb5d6t7QdkvxBxrkDubRQTnQnArbn59xENptt-X55iGwY4qGso1axODA1fKEQiWbUnNKQb2PUWS0]--></g></svg>