<svg xmlns="http://www.w3.org/2000/svg" xmlns:xlink="http://www.w3.org/1999/xlink" contentStyleType="text/css" data-diagram-type="DESCRIPTION" height="1154px" preserveAspectRatio="none" style="width:1152px;height:1154px;background:#FFFFFF;" version="1.1" viewBox="0 0 1152 1154" width="1152px" zoomAndPan="magnify"><defs/><g><!--cluster Sistema--><g class="cluster" data-entity="Sistema" data-source-line="7" data-uid="ent0003" id="cluster_Sistema"><path d="M110,6.602 L166.3978,6.602 A3.75,3.75 0 0 1 168.8978,9.102 L175.8978,31.6699 L1142.6,31.6699 A2.5,2.5 0 0 1 1145.1,34.1699 L1145.1,1136.102 A2.5,2.5 0 0 1 1142.6,1138.602 L110,1138.602 A2.5,2.5 0 0 1 107.5,1136.102 L107.5,9.102 A2.5,2.5 0 0 1 110,6.602" fill="none" style="stroke:#000000;stroke-width:1.5;"/><line style="stroke:#000000;stroke-width:1.5;" x1="107.5" x2="175.8978" y1="31.6699" y2="31.6699"/><text fill="#000000" font-family="sans-serif" font-size="14" font-weight="bold" lengthAdjust="spacing" textLength="55.3978" x="111.5" y="23.5679">Sistema</text></g><!--entity UC1--><g class="entity" data-entity="UC1" data-source-line="8" data-uid="ent0004" id="entity_UC1"><ellipse cx="1009.7611" cy="719.6002" fill="#F1F1F1" rx="119.3411" ry="26.2682" style="stroke:#181818;stroke-width:0.5;"/><text fill="#000000" font-family="sans-serif" font-size="14" lengthAdjust="spacing" textLength="212.2532" x="903.6346" y="725.6342">Visualizzazione della home page</text></g><!--entity UC2--><g class="entity" data-entity="UC2" data-source-line="9" data-uid="ent0005" id="entity_UC2"><ellipse cx="631.5147" cy="719.5989" fill="#F1F1F1" rx="119.0347" ry="26.2069" style="stroke:#181818;stroke-width:0.5;"/><text fill="#000000" font-family="sans-serif" font-size="14" lengthAdjust="spacing" textLength="211.5812" x="525.7241" y="725.6329">Visualizzazione del catalogo libri</text></g><!--entity UC3--><g class="entity" data-entity="UC3" data-source-line="10" data-uid="ent0006" id="entity_UC3"><ellipse cx="248.0461" cy="88.6032" fill="#F1F1F1" rx="117.5561" ry="25.9112" style="stroke:#181818;stroke-width:0.5;"/><text fill="#000000" font-family="sans-serif" font-size="14" lengthAdjust="spacing" textLength="208.3332" x="143.8795" y="94.6372">Visualizzazione dei prestiti attivi</text></g><!--entity UC4--><g class="entity" data-entity="UC4" data-source-line="11" data-uid="ent0007" id="entity_UC4"><ellipse cx="631.5114" cy="82.6043" fill="#F1F1F1" rx="139.9114" ry="30.3823" style="stroke:#181818;stroke-width:0.5;"/><text fill="#000000" font-family="sans-serif" font-size="14" lengthAdjust="spacing" textLength="256.689" x="503.1669" y="88.6382">Visualizzazione dello storico dei prestiti</text></g><!--entity UC5--><g class="entity" data-entity="UC5" data-source-line="12" data-uid="ent0008" id="entity_UC5"><ellipse cx="631.5077" cy="424.5995" fill="#F1F1F1" rx="137.2377" ry="29.8475" style="stroke:#181818;stroke-width:0.5;"/><text fill="#000000" font-family="sans-serif" font-size="14" lengthAdjust="spacing" textLength="250.977" x="506.0192" y="430.6335">Visualizzazione dell'elenco degli utenti</text></g><!--entity UC6--><g class="entity" data-entity="UC6" data-source-line="13" data-uid="ent0009" id="entity_UC6"><ellipse cx="248.0513" cy="192.6022" fill="#F1F1F1" rx="101.8013" ry="22.7603" style="stroke:#181818;stroke-width:0.5;"/><text fill="#000000" font-family="sans-serif" font-size="14" lengthAdjust="spacing" textLength="173.0813" x="161.5106" y="198.6362">Registrazione di un utente</text></g><!--entity UC7--><g class="entity" data-entity="UC7" data-source-line="14" data-uid="ent0010" id="entity_UC7"><ellipse cx="248.049" cy="313.5998" fill="#F1F1F1" rx="110.439" ry="24.4878" style="stroke:#181818;stroke-width:0.5;"/><text fill="#000000" font-family="sans-serif" font-size="14" lengthAdjust="spacing" textLength="192.5692" x="151.7644" y="319.6337">Modifica dei dati di un utente</text></g><!--entity UC8--><g class="entity" data-entity="UC8" data-source-line="15" data-uid="ent0011" id="entity_UC8"><ellipse cx="248.0463" cy="402.5972" fill="#F1F1F1" rx="93.0263" ry="21.0053" style="stroke:#181818;stroke-width:0.5;"/><text fill="#000000" font-family="sans-serif" font-size="14" lengthAdjust="spacing" textLength="152.7394" x="171.6766" y="408.6312">Rimozione di un utente</text></g><!--entity UC9--><g class="entity" data-entity="UC9" data-source-line="16" data-uid="ent0012" id="entity_UC9"><ellipse cx="248.0543" cy="481.6048" fill="#F1F1F1" rx="105.3143" ry="23.4629" style="stroke:#181818;stroke-width:0.5;"/><text fill="#000000" font-family="sans-serif" font-size="14" lengthAdjust="spacing" textLength="181.0613" x="157.5236" y="487.6388">Registrazione di un prestito</text></g><!--entity UC10--><g class="entity" data-entity="UC10" data-source-line="17" data-uid="ent0013" id="entity_UC10"><ellipse cx="248.0488" cy="560.6057" fill="#F1F1F1" rx="92.4688" ry="20.8938" style="stroke:#181818;stroke-width:0.5;"/><text fill="#000000" font-family="sans-serif" font-size="14" lengthAdjust="spacing" textLength="151.4234" x="172.3371" y="566.6397">Restituzione di un libro</text></g><!--entity UC11--><g class="entity" data-entity="UC11" data-source-line="18" data-uid="ent0014" id="entity_UC11"><ellipse cx="248.0491" cy="722.605" fill="#F1F1F1" rx="68.0691" ry="16.4831" style="stroke:#181818;stroke-width:0.5;"/><text fill="#000000" font-family="sans-serif" font-size="14" lengthAdjust="spacing" textLength="92.0216" x="202.0383" y="728.639">Ricerca di libri</text></g><!--entity UC12--><g class="entity" data-entity="UC12" data-source-line="19" data-uid="ent0015" id="entity_UC12"><ellipse cx="248.05" cy="795.604" fill="#F1F1F1" rx="96.11" ry="21.622" style="stroke:#181818;stroke-width:0.5;"/><text fill="#000000" font-family="sans-serif" font-size="14" lengthAdjust="spacing" textLength="159.9634" x="168.0684" y="801.6379">Registrazione di un libro</text></g><!--entity UC13--><g class="entity" data-entity="UC13" data-source-line="20" data-uid="ent0016" id="entity_UC13"><ellipse cx="248.0527" cy="896.6025" fill="#F1F1F1" rx="104.6027" ry="23.3205" style="stroke:#181818;stroke-width:0.5;"/><text fill="#000000" font-family="sans-serif" font-size="14" lengthAdjust="spacing" textLength="179.4513" x="158.327" y="902.6365">Modifica dei dati di un libro</text></g><!--entity UC14--><g class="entity" data-entity="UC14" data-source-line="21" data-uid="ent0017" id="entity_UC14"><ellipse cx="248.0484" cy="643.6017" fill="#F1F1F1" rx="124.5484" ry="27.3097" style="stroke:#181818;stroke-width:0.5;"/><text fill="#000000" font-family="sans-serif" font-size="14" lengthAdjust="spacing" textLength="223.6211" x="136.2378" y="649.6356">Rimozione di un libro dal catalogo</text></g><!--entity UC15--><g class="entity" data-entity="UC15" data-source-line="22" data-uid="ent0018" id="entity_UC15"><ellipse cx="248.0487" cy="995.5997" fill="#F1F1F1" rx="114.3387" ry="25.2677" style="stroke:#181818;stroke-width:0.5;"/><text fill="#000000" font-family="sans-serif" font-size="14" lengthAdjust="spacing" textLength="201.2352" x="147.4311" y="1001.6337">Salvataggio dell'archivio su file</text></g><!--entity UC16--><g class="entity" data-entity="UC16" data-source-line="23" data-uid="ent0019" id="entity_UC16"><ellipse cx="248.0539" cy="1081.6008" fill="#F1F1F1" rx="118.2439" ry="26.0488" style="stroke:#181818;stroke-width:0.5;"/><text fill="#000000" font-family="sans-serif" font-size="14" lengthAdjust="spacing" textLength="209.8452" x="143.1313" y="1087.6347">Caricamento dell'archivio da file</text></g><!--entity UCA1--><g class="entity" data-entity="UCA1" data-source-line="25" data-uid="ent0020" id="entity_UCA1"><ellipse cx="631.5122" cy="181.6024" fill="#F1F1F1" rx="81.9522" ry="18.7904" style="stroke:#181818;stroke-width:0.5;"/><text fill="#000000" font-family="sans-serif" font-size="14" lengthAdjust="spacing" textLength="125.8735" x="568.5754" y="187.6364">Matricola duplicata</text></g><!--entity UCA2--><g class="entity" data-entity="UCA2" data-source-line="26" data-uid="ent0021" id="entity_UCA2"><ellipse cx="631.5065" cy="283.6033" fill="#F1F1F1" rx="76.4565" ry="17.6913" style="stroke:#181818;stroke-width:0.5;"/><text fill="#000000" font-family="sans-serif" font-size="14" lengthAdjust="spacing" textLength="111.7756" x="575.6187" y="289.6372">E-Mail non valida</text></g><!--entity UCA3--><g class="entity" data-entity="UCA3" data-source-line="27" data-uid="ent0022" id="entity_UCA3"><ellipse cx="631.5069" cy="848.6034" fill="#F1F1F1" rx="71.0069" ry="16.6014" style="stroke:#181818;stroke-width:0.5;"/><text fill="#000000" font-family="sans-serif" font-size="14" lengthAdjust="spacing" textLength="97.0056" x="583.004" y="854.6373">ISBN duplicato</text></g><!--entity UCA4--><g class="entity" data-entity="UCA4" data-source-line="28" data-uid="ent0023" id="entity_UCA4"><ellipse cx="631.514" cy="601.6028" fill="#F1F1F1" rx="82.904" ry="18.9808" style="stroke:#181818;stroke-width:0.5;"/><text fill="#000000" font-family="sans-serif" font-size="14" lengthAdjust="spacing" textLength="128.2535" x="567.3872" y="607.6367">Libro gi&#224; in prestito</text></g><!--entity UCA5--><g class="entity" data-entity="UCA5" data-source-line="29" data-uid="ent0024" id="entity_UCA5"><ellipse cx="631.5119" cy="1017.605" fill="#F1F1F1" rx="60.9019" ry="16.4831" style="stroke:#181818;stroke-width:0.5;"/><text fill="#000000" font-family="sans-serif" font-size="14" lengthAdjust="spacing" textLength="81.8857" x="590.5691" y="1023.639">Errore di I/O</text></g><!--entity G--><g class="entity" data-entity="G" data-source-line="5" data-uid="ent0002" id="entity_G"><ellipse cx="33" cy="590.072" fill="#F1F1F1" rx="16" ry="16" style="stroke:#181818;stroke-width:0.5;"/><path d="M33,610.072 C37,610.072 40,610.072 44,606.072 C52,606.072 60,614.072 60,622.072 L60,626.072 C60,630.072 56,634.072 52,634.072 L14,634.072 C10,634.072 6,630.072 6,626.072 L6,622.072 C6,614.072 14,606.072 22,606.072 C26,610.072 29,610.072 33,610.072" fill="#F1F1F1" style="stroke:#181818;stroke-width:0.5;"/><text fill="#000000" font-family="sans-serif" font-size="14" lengthAdjust="spacing" textLength="51.9958" x="7.0021" y="649.5379">Gestore</text></g><!--link UC2 to UC1--><g class="link" data-entity-1="UC2" data-entity-2="UC1" data-source-line="32" data-uid="lnk25" id="link_UC2_UC1"><path d="M751.04,719.602 C795.41,719.602 839.8,719.602 884.18,719.602" fill="none" id="UC2-to-UC1" style="stroke:#181818;stroke-width:1;stroke-dasharray:7,7;"/><polygon fill="#181818" points="890.18,719.602,881.18,715.602,885.18,719.602,881.18,723.602,890.18,719.602" style="stroke:#181818;stroke-width:1;"/><text fill="#000000" font-family="sans-serif" font-size="13" lengthAdjust="spacing" textLength="57.5771" x="802.42" y="715.499">&#171;include&#187;</text></g><!--link UC5 to UC1--><g class="link" data-entity-1="UC5" data-entity-2="UC1" data-source-line="33" data-uid="lnk26" id="link_UC5_UC1"><path d="M669.61,453.692 C743.22,511.402 901.8582,635.79 971.5382,690.42" fill="none" id="UC5-to-UC1" style="stroke:#181818;stroke-width:1;stroke-dasharray:7,7;"/><polygon fill="#181818" points="976.26,694.122,971.6453,685.4212,972.3252,691.037,966.7093,691.7169,976.26,694.122" style="stroke:#181818;stroke-width:1;"/><text fill="#000000" font-family="sans-serif" font-size="13" lengthAdjust="spacing" textLength="57.5771" x="802.42" y="559.149">&#171;include&#187;</text></g><!--link UC4 to UC1--><g class="link" data-entity-1="UC4" data-entity-2="UC1" data-source-line="34" data-uid="lnk27" id="link_UC4_UC1"><path d="M713.98,107.392 C734.72,116.752 755.59,129.232 771.42,145.602 C932.57,312.282 989.4823,597.9289 1003.8923,687.0489" fill="none" id="UC4-to-UC1" style="stroke:#181818;stroke-width:1;stroke-dasharray:7,7;"/><polygon fill="#181818" points="1004.85,692.972,1007.3621,683.4489,1004.0519,688.0361,999.4647,684.7258,1004.85,692.972" style="stroke:#181818;stroke-width:1;"/><text fill="#000000" font-family="sans-serif" font-size="13" lengthAdjust="spacing" textLength="57.5771" x="802.42" y="179.019">&#171;include&#187;</text></g><!--link UC15 to UC1--><g class="link" data-entity-1="UC15" data-entity-2="UC1" data-source-line="35" data-uid="lnk28" id="link_UC15_UC1"><path d="M361.7,992.192 C471.11,985.082 639.57,963.882 771.42,901.602 C857.34,861.022 937.3877,789.6238 978.5177,749.8338" fill="none" id="UC15-to-UC1" style="stroke:#181818;stroke-width:1;stroke-dasharray:7,7;"/><polygon fill="#181818" points="982.83,745.662,973.5803,749.0448,979.2364,749.1385,979.1427,754.7946,982.83,745.662" style="stroke:#181818;stroke-width:1;"/><text fill="#000000" font-family="sans-serif" font-size="13" lengthAdjust="spacing" textLength="57.5771" x="603.01" y="897.499">&#171;include&#187;</text></g><!--link UC16 to UC1--><g class="link" data-entity-1="UC16" data-entity-2="UC1" data-source-line="36" data-uid="lnk29" id="link_UC16_UC1"><path d="M327.75,1101.132 C435.23,1123.322 630.61,1147.272 771.42,1070.602 C904.5,998.132 975.1661,820.6952 998.4461,751.9252" fill="none" id="UC16-to-UC1" style="stroke:#181818;stroke-width:1;stroke-dasharray:7,7;"/><polygon fill="#181818" points="1000.37,746.242,993.6954,753.4842,998.7668,750.978,1001.273,756.0494,1000.37,746.242" style="stroke:#181818;stroke-width:1;"/><text fill="#000000" font-family="sans-serif" font-size="13" lengthAdjust="spacing" textLength="57.5771" x="603.01" y="1066.499">&#171;include&#187;</text></g><!--link UC3 to UC4--><g class="link" data-entity-1="UC3" data-entity-2="UC4" data-source-line="38" data-uid="lnk30" id="link_UC3_UC4"><path d="M318.71,67.572 C344.77,60.712 374.79,53.992 402.6,50.602 C448.21,45.042 481.1631,47.4854 523.0931,55.6654" fill="none" id="UC3-to-UC4" style="stroke:#181818;stroke-width:1;"/><polygon fill="none" points="540.76,59.112,524.2419,49.7764,521.9442,61.5544,540.76,59.112" style="stroke:#181818;stroke-width:1;"/></g><!--link UC6 to UC5--><g class="link" data-entity-1="UC6" data-entity-2="UC5" data-source-line="40" data-uid="lnk31" id="link_UC6_UC5"><path d="M300.23,212.492 C354,233.862 434.45,267.342 461.6,286.602 C477.5,297.882 477.13,305.532 491.6,318.602 C522.77,346.772 555.9987,371.979 584.4087,392.409" fill="none" id="UC6-to-UC5" style="stroke:#181818;stroke-width:1;stroke-dasharray:7,7;"/><polygon fill="#181818" points="589.28,395.912,584.3084,387.41,585.2206,392.9928,579.6378,393.905,589.28,395.912" style="stroke:#181818;stroke-width:1;"/><text fill="#000000" font-family="sans-serif" font-size="13" lengthAdjust="spacing" textLength="57.5771" x="403.6" y="253.979">&#171;include&#187;</text></g><!--link UC7 to UC5--><g class="link" data-entity-1="UC7" data-entity-2="UC5" data-source-line="41" data-uid="lnk32" id="link_UC7_UC5"><path d="M316.37,333.192 C380.96,351.982 472.889,378.7353 542.159,398.8953" fill="none" id="UC7-to-UC5" style="stroke:#181818;stroke-width:1;stroke-dasharray:7,7;"/><polygon fill="#181818" points="547.92,400.572,540.3963,394.2164,543.1192,399.1748,538.1608,401.8977,547.92,400.572" style="stroke:#181818;stroke-width:1;"/><text fill="#000000" font-family="sans-serif" font-size="13" lengthAdjust="spacing" textLength="57.5771" x="403.6" y="355.059">&#171;include&#187;</text></g><!--link UC8 to UC5--><g class="link" data-entity-1="UC8" data-entity-2="UC5" data-source-line="42" data-uid="lnk33" id="link_UC8_UC5"><path d="M319.08,416.452 C345.18,420.962 375.14,425.382 402.6,427.602 C432.97,430.062 459.6901,430.8027 490.6001,430.5927" fill="none" id="UC8-to-UC5" style="stroke:#181818;stroke-width:1;stroke-dasharray:7,7;"/><polygon fill="#181818" points="496.6,430.552,487.573,426.6132,491.6001,430.586,487.6274,434.613,496.6,430.552" style="stroke:#181818;stroke-width:1;"/><text fill="#000000" font-family="sans-serif" font-size="13" lengthAdjust="spacing" textLength="57.5771" x="403.6" y="423.499">&#171;include&#187;</text></g><!--link UC9 to UC5--><g class="link" data-entity-1="UC9" data-entity-2="UC5" data-source-line="43" data-uid="lnk34" id="link_UC9_UC5"><path d="M345.55,472.362 C382,468.442 423.79,463.422 461.6,457.602 C484.34,454.102 502.7881,450.8556 525.7081,446.4456" fill="none" id="UC9-to-UC5" style="stroke:#181818;stroke-width:1;stroke-dasharray:7,7;"/><polygon fill="#181818" points="531.6,445.312,522.0063,443.0845,526.6901,446.2567,523.5179,450.9404,531.6,445.312" style="stroke:#181818;stroke-width:1;"/><text fill="#000000" font-family="sans-serif" font-size="13" lengthAdjust="spacing" textLength="57.5771" x="403.6" y="453.499">&#171;include&#187;</text></g><!--link UC10 to UC2--><g class="link" data-entity-1="UC10" data-entity-2="UC2" data-source-line="45" data-uid="lnk35" id="link_UC10_UC2"><path d="M340.69,559.602 C380.42,562.952 425.9,572.212 461.6,594.602 C481.34,606.982 474.51,621.762 491.6,637.602 C517.17,661.302 545.3905,678.5859 573.1205,692.9259" fill="none" id="UC10-to-UC2" style="stroke:#181818;stroke-width:1;stroke-dasharray:7,7;"/><polygon fill="#181818" points="578.45,695.682,572.2931,687.9948,574.0087,693.3853,568.6183,695.1009,578.45,695.682" style="stroke:#181818;stroke-width:1;"/><text fill="#000000" font-family="sans-serif" font-size="13" lengthAdjust="spacing" textLength="57.5771" x="403.6" y="565.879">&#171;include&#187;</text></g><!--link UC11 to UC2--><g class="link" data-entity-1="UC11" data-entity-2="UC2" data-source-line="46" data-uid="lnk36" id="link_UC11_UC2"><path d="M316.54,722.912 C358.32,723.022 413.07,723.032 461.6,722.602 C478.17,722.452 489.6507,722.3127 506.8407,722.0527" fill="none" id="UC11-to-UC2" style="stroke:#181818;stroke-width:1;stroke-dasharray:7,7;"/><polygon fill="#181818" points="512.84,721.962,503.7805,718.0985,507.8406,722.0376,503.9015,726.0976,512.84,721.962" style="stroke:#181818;stroke-width:1;"/><text fill="#000000" font-family="sans-serif" font-size="13" lengthAdjust="spacing" textLength="57.5771" x="403.6" y="718.499">&#171;include&#187;</text></g><!--link UC12 to UC2--><g class="link" data-entity-1="UC12" data-entity-2="UC2" data-source-line="47" data-uid="lnk37" id="link_UC12_UC2"><path d="M321.25,781.222 C383.99,768.712 469.2156,751.734 536.2956,738.374" fill="none" id="UC12-to-UC2" style="stroke:#181818;stroke-width:1;stroke-dasharray:7,7;"/><polygon fill="#181818" points="542.18,737.202,532.572,735.037,537.2763,738.1786,534.1347,742.8829,542.18,737.202" style="stroke:#181818;stroke-width:1;"/><text fill="#000000" font-family="sans-serif" font-size="13" lengthAdjust="spacing" textLength="57.5771" x="403.6" y="751.219">&#171;include&#187;</text></g><!--link UC13 to UC2--><g class="link" data-entity-1="UC13" data-entity-2="UC2" data-source-line="48" data-uid="lnk38" id="link_UC13_UC2"><path d="M344.58,905.952 C383.87,905.172 427.96,897.872 461.6,874.602 C486.12,857.642 472,837.072 491.6,814.602 C517.24,785.212 548.7072,763.6305 577.9372,746.8405" fill="none" id="UC13-to-UC2" style="stroke:#181818;stroke-width:1;stroke-dasharray:7,7;"/><polygon fill="#181818" points="583.14,743.852,573.3435,744.8663,578.8044,746.3424,577.3282,751.8033,583.14,743.852" style="stroke:#181818;stroke-width:1;"/><text fill="#000000" font-family="sans-serif" font-size="13" lengthAdjust="spacing" textLength="57.5771" x="403.6" y="870.499">&#171;include&#187;</text></g><!--link UC14 to UC2--><g class="link" data-entity-1="UC14" data-entity-2="UC2" data-source-line="49" data-uid="lnk39" id="link_UC14_UC2"><path d="M341.39,662.002 C402.36,674.142 475.9057,688.7996 536.0857,700.7896" fill="none" id="UC14-to-UC2" style="stroke:#181818;stroke-width:1;stroke-dasharray:7,7;"/><polygon fill="#181818" points="541.97,701.962,533.9251,696.2805,537.0664,700.985,532.3619,704.1263,541.97,701.962" style="stroke:#181818;stroke-width:1;"/><text fill="#000000" font-family="sans-serif" font-size="13" lengthAdjust="spacing" textLength="57.5771" x="403.6" y="670.689">&#171;include&#187;</text></g><!--reverse link UC6 to UCA1--><g class="link" data-entity-1="UC6" data-entity-2="UCA1" data-source-line="51" data-uid="lnk40" id="link_UC6_UCA1"><path d="M300.6755,169.5911 C324.3355,158.5311 347.86,146.622 372.6,131.602 C386.73,123.022 386.88,114.742 402.6,109.602 C427.52,101.442 436.59,101.722 461.6,109.602 C477.12,114.492 477.17,123.072 491.6,130.602 C519.72,145.292 553.04,157.672 579.99,166.562" fill="none" id="UC6-backto-UCA1" style="stroke:#181818;stroke-width:1;stroke-dasharray:7,7;"/><polygon fill="#181818" points="295.24,172.132,305.0871,171.9444,299.7695,170.0146,301.6993,164.6971,295.24,172.132" style="stroke:#181818;stroke-width:1;"/><text fill="#000000" font-family="sans-serif" font-size="13" lengthAdjust="spacing" textLength="55.497" x="404.6" y="99.479">&#171;extend&#187;</text></g><!--reverse link UC7 to UCA1--><g class="link" data-entity-1="UC7" data-entity-2="UCA1" data-source-line="52" data-uid="lnk41" id="link_UC7_UCA1"><path d="M288.8614,286.7086 C319.0314,267.2386 359.48,243.582 402.6,227.602 C452.94,208.952 512.49,197.262 558.09,190.332" fill="none" id="UC7-backto-UCA1" style="stroke:#181818;stroke-width:1;stroke-dasharray:7,7;"/><polygon fill="#181818" points="283.82,289.962,293.551,288.4428,288.0211,287.2508,289.2131,281.721,283.82,289.962" style="stroke:#181818;stroke-width:1;"/><text fill="#000000" font-family="sans-serif" font-size="13" lengthAdjust="spacing" textLength="55.497" x="404.6" y="206.529">&#171;extend&#187;</text></g><!--reverse link UC6 to UCA2--><g class="link" data-entity-1="UC6" data-entity-2="UCA2" data-source-line="53" data-uid="lnk42" id="link_UC6_UCA2"><path d="M301.7837,170.095 C347.0837,153.745 410.41,139.922 461.6,168.602 C483.87,181.082 472.61,200.522 491.6,217.602 C518.3,241.612 555.29,258.612 584.38,269.342" fill="none" id="UC6-backto-UCA2" style="stroke:#181818;stroke-width:1;stroke-dasharray:7,7;"/><polygon fill="#181818" points="296.14,172.132,305.9634,172.839,300.843,170.4345,303.2475,165.3141,296.14,172.132" style="stroke:#181818;stroke-width:1;"/><text fill="#000000" font-family="sans-serif" font-size="13" lengthAdjust="spacing" textLength="55.497" x="404.6" y="149.149">&#171;extend&#187;</text></g><!--reverse link UC7 to UCA2--><g class="link" data-entity-1="UC7" data-entity-2="UCA2" data-source-line="54" data-uid="lnk43" id="link_UC7_UCA2"><path d="M364.6892,314.246 C397.8092,313.716 428.23,312.472 461.6,309.602 C498.1,306.462 538.7,300.302 570.94,294.762" fill="none" id="UC7-backto-UCA2" style="stroke:#181818;stroke-width:1;stroke-dasharray:7,7;"/><polygon fill="#181818" points="358.69,314.342,367.7528,318.1975,363.6894,314.262,367.6248,310.1985,358.69,314.342" style="stroke:#181818;stroke-width:1;"/><text fill="#000000" font-family="sans-serif" font-size="13" lengthAdjust="spacing" textLength="55.497" x="404.6" y="305.499">&#171;extend&#187;</text></g><!--reverse link UC12 to UCA3--><g class="link" data-entity-1="UC12" data-entity-2="UCA3" data-source-line="55" data-uid="lnk44" id="link_UC12_UCA3"><path d="M305.8856,815.9689 C335.4056,825.7489 367.77,834.982 402.6,840.602 C455.17,849.092 515.41,850.872 560.75,850.642" fill="none" id="UC12-backto-UCA3" style="stroke:#181818;stroke-width:1;stroke-dasharray:7,7;"/><polygon fill="#181818" points="300.19,814.082,307.4754,820.7094,304.9363,815.6544,309.9913,813.1154,300.19,814.082" style="stroke:#181818;stroke-width:1;"/><text fill="#000000" font-family="sans-serif" font-size="13" lengthAdjust="spacing" textLength="55.497" x="404.6" y="836.499">&#171;extend&#187;</text></g><!--reverse link UC13 to UCA3--><g class="link" data-entity-1="UC13" data-entity-2="UCA3" data-source-line="56" data-uid="lnk45" id="link_UC13_UCA3"><path d="M295.8008,920.9856 C325.9708,935.5856 362.95,950.902 402.6,958.602 C428.34,963.602 439,971.902 461.6,958.602 C485.26,944.682 471.02,922.772 491.6,904.602 C516.45,882.652 551,868.682 579.43,860.182" fill="none" id="UC13-backto-UCA3" style="stroke:#181818;stroke-width:1;stroke-dasharray:7,7;"/><polygon fill="#181818" points="290.4,918.372,296.7589,925.8929,294.9007,920.55,300.2437,918.6918,290.4,918.372" style="stroke:#181818;stroke-width:1;"/><text fill="#000000" font-family="sans-serif" font-size="13" lengthAdjust="spacing" textLength="55.497" x="404.6" y="954.499">&#171;extend&#187;</text></g><!--reverse link UC14 to UCA4--><g class="link" data-entity-1="UC14" data-entity-2="UCA4" data-source-line="57" data-uid="lnk46" id="link_UC14_UCA4"><path d="M366.1139,630.7151 C429.1239,623.7751 500.31,615.942 556.04,609.802" fill="none" id="UC14-backto-UCA4" style="stroke:#181818;stroke-width:1;stroke-dasharray:7,7;"/><polygon fill="#181818" points="360.15,631.372,369.5338,634.3626,365.1199,630.8246,368.658,626.4107,360.15,631.372" style="stroke:#181818;stroke-width:1;"/><text fill="#000000" font-family="sans-serif" font-size="13" lengthAdjust="spacing" textLength="55.497" x="404.6" y="617.239">&#171;extend&#187;</text></g><!--reverse link UC15 to UCA5--><g class="link" data-entity-1="UC15" data-entity-2="UCA5" data-source-line="58" data-uid="lnk47" id="link_UC15_UCA5"><path d="M335.4232,1014.8588 C358.8532,1019.3388 378.69,1022.362 402.6,1024.602 C460.73,1030.042 527.54,1026.892 573.72,1023.242" fill="none" id="UC15-backto-UCA5" style="stroke:#181818;stroke-width:1;stroke-dasharray:7,7;"/><polygon fill="#181818" points="329.53,1013.732,337.6186,1019.3511,334.441,1014.671,339.1211,1011.4934,329.53,1013.732" style="stroke:#181818;stroke-width:1;"/><text fill="#000000" font-family="sans-serif" font-size="13" lengthAdjust="spacing" textLength="55.497" x="404.6" y="1020.499">&#171;extend&#187;</text></g><!--reverse link UC16 to UCA5--><g class="link" data-entity-1="UC16" data-entity-2="UCA5" data-source-line="59" data-uid="lnk48" id="link_UC16_UCA5"><path d="M360.6846,1069.3255 C394.8846,1065.0955 426.96,1060.582 461.6,1054.602 C503.75,1047.322 551.31,1036.682 585.2,1028.682" fill="none" id="UC16-backto-UCA5" style="stroke:#181818;stroke-width:1;stroke-dasharray:7,7;"/><polygon fill="#181818" points="354.73,1070.062,364.1529,1072.927,359.6922,1069.4482,363.1709,1064.9875,354.73,1070.062" style="stroke:#181818;stroke-width:1;"/><text fill="#000000" font-family="sans-serif" font-size="13" lengthAdjust="spacing" textLength="55.497" x="404.6" y="1050.499">&#171;extend&#187;</text></g><!--link G to UC3--><g class="link" data-entity-1="G" data-entity-2="UC3" data-source-line="61" data-uid="lnk49" id="link_G_UC3"><path d="M34.8,573.122 C37.54,473.222 49.39,218.342 99.5,152.602 C115.75,131.282 140.56,116.952 165.23,107.372" fill="none" id="G-UC3" style="stroke:#181818;stroke-width:1;"/></g><!--link G to UC6--><g class="link" data-entity-1="G" data-entity-2="UC6" data-source-line="62" data-uid="lnk50" id="link_G_UC6"><path d="M37.38,573.302 C44.75,493.552 64.48,319.202 99.5,271.602 C120.68,242.812 155.57,223.452 186.1,211.102" fill="none" id="G-UC6" style="stroke:#181818;stroke-width:1;"/></g><!--link G to UC7--><g class="link" data-entity-1="G" data-entity-2="UC7" data-source-line="63" data-uid="lnk51" id="link_G_UC7"><path d="M33.4,573.472 C34.77,518.972 45.36,421.702 99.5,363.602 C115.17,346.782 136.71,335.622 158.48,328.212" fill="none" id="G-UC7" style="stroke:#181818;stroke-width:1;"/></g><!--link G to UC8--><g class="link" data-entity-1="G" data-entity-2="UC8" data-source-line="64" data-uid="lnk52" id="link_G_UC8"><path d="M38.58,573.332 C45.21,533.892 61.23,474.882 99.5,440.602 C116.54,425.332 138.91,416.052 161.07,410.442" fill="none" id="G-UC8" style="stroke:#181818;stroke-width:1;"/></g><!--link G to UC9--><g class="link" data-entity-1="G" data-entity-2="UC9" data-source-line="65" data-uid="lnk53" id="link_G_UC9"><path d="M54.72,573.312 C65.79,555.412 80.98,535.522 99.5,522.602 C117.71,509.902 139.74,501.122 161.16,495.062" fill="none" id="G-UC9" style="stroke:#181818;stroke-width:1;"/></g><!--link G to UC10--><g class="link" data-entity-1="G" data-entity-2="UC10" data-source-line="66" data-uid="lnk54" id="link_G_UC10"><path d="M60.87,604.502 C70.2,601.492 80.76,598.232 90.5,595.602 C119,587.892 150.73,580.572 178.14,574.632" fill="none" id="G-UC10" style="stroke:#181818;stroke-width:1;"/></g><!--link G to UC11--><g class="link" data-entity-1="G" data-entity-2="UC11" data-source-line="67" data-uid="lnk55" id="link_G_UC11"><path d="M60.8,653.312 C71.43,666.332 84.67,679.722 99.5,688.602 C124.87,703.802 156.44,712.202 183.85,716.852" fill="none" id="G-UC11" style="stroke:#181818;stroke-width:1;"/></g><!--link G to UC12--><g class="link" data-entity-1="G" data-entity-2="UC12" data-source-line="68" data-uid="lnk56" id="link_G_UC12"><path d="M42.45,653.932 C51.29,686.252 68.38,730.392 99.5,756.602 C116.83,771.192 139.04,780.392 160.94,786.162" fill="none" id="G-UC12" style="stroke:#181818;stroke-width:1;"/></g><!--link G to UC13--><g class="link" data-entity-1="G" data-entity-2="UC13" data-source-line="69" data-uid="lnk57" id="link_G_UC13"><path d="M35.8,654.082 C40.03,702.622 53.97,783.782 99.5,834.602 C118.88,856.232 147.02,870.532 173.54,879.882" fill="none" id="G-UC13" style="stroke:#181818;stroke-width:1;"/></g><!--link G to UC14--><g class="link" data-entity-1="G" data-entity-2="UC14" data-source-line="70" data-uid="lnk58" id="link_G_UC14"><path d="M60.98,617.402 C81.81,620.332 112.06,624.592 142.14,628.832" fill="none" id="G-UC14" style="stroke:#181818;stroke-width:1;"/></g><!--link G to UC15--><g class="link" data-entity-1="G" data-entity-2="UC15" data-source-line="71" data-uid="lnk59" id="link_G_UC15"><path d="M37.37,653.902 C44.56,730.872 63.73,894.952 99.5,937.602 C115.68,956.902 139.15,969.812 162.62,978.442" fill="none" id="G-UC15" style="stroke:#181818;stroke-width:1;"/></g><!--link G to UC16--><g class="link" data-entity-1="G" data-entity-2="UC16" data-source-line="72" data-uid="lnk60" id="link_G_UC16"><path d="M34.86,654.082 C37.68,748.922 49.65,981.782 99.5,1038.602 C111.64,1052.442 127.96,1061.942 145.31,1068.442" fill="none" id="G-UC16" style="stroke:#181818;stroke-width:1;"/></g><!--SRC=[ZPJDRjD04CVl-nIZNZWbr7Ri95KKALHLL8c2H0JtgRrnHjru8tiT8C2xy2wyMCUkrs2RnUIIiNxpdvsltUA9iXFcU0ICZSvtvgkIW9zbeOzI22Nt1eo6dDA3WOHo6HlIcH2rCsnbmN_iNy1MY1F6JvXAs55Xv17Xcm3-bOMCiP1mzOcA4XLTBdZX418IgHJ2WS-14ykkgYWVRxrH4SHeKEbKWwB7d1gTFwOZEEMSBXa2D8RELXYCPwcXAfDYtGdJw6VZ-bTIoQnMfugWD39hrM5N_K6ctBpSQjavU_6txOcw_WyweJt5M2UM8DVs5ysyTmOTjJF-OZoVfdxTA9PzHGNBFmNLcAotTzrF9fPvbJzrfkbvutbqmlh_rvUE9lXtNsfV5lzUE2liZNo7wimUQKhwPToOnmTUC5wR4lQasjNk3ViMUQVmoDtlwnBiw2BHgmvDjOryUvBofAXAht7TzFfsDtb0Kf3f3CwybKdhr-lN_UxDkpQOhNFJQz3RkY4f_Ve9D5Y3JQyfTtbUlGpSollNxwrFA7u8mNSLfjDrLHZSm6f5MQpAHAxNJ48dcJc9LubSB78nXW5C9j_NzHNchwWv81m4cJl9macM3bBbTDqmVvYkvqQ-6mLkD7EWkk3LT5hlJCta5tu7agPW5sarlbCp89nvWu812jnePj4C1YoqB1oWo874bgTTF_UD4LbZRes5DPRMuDVAMbvh-QtLnk8NmLfXQqNY6G00]--></g></svg>