<svg xmlns="http://www.w3.org/2000/svg" xmlns:xlink="http://www.w3.org/1999/xlink" contentStyleType="text/css" data-diagram-type="DESCRIPTION" height="1213px" preserveAspectRatio="none" style="width:1152px;height:1213px;background:#FFFFFF;" version="1.1" viewBox="0 0 1152 1213" width="1152px" zoomAndPan="magnify">
    <defs/>
    <g><!--cluster Sistema-->
        <g class="cluster" data-entity="Sistema" data-source-line="7" data-uid="ent0003" id="cluster_Sistema">
            <path d="M110,6.602 L166.3978,6.602 A3.75,3.75 0 0 1 168.8978,9.102 L175.8978,31.6699 L1142.6,31.6699 A2.5,2.5 0 0 1 1145.1,34.1699 L1145.1,1195.102 A2.5,2.5 0 0 1 1142.6,1197.602 L110,1197.602 A2.5,2.5 0 0 1 107.5,1195.102 L107.5,9.102 A2.5,2.5 0 0 1 110,6.602" fill="none" style="stroke:#000000;stroke-width:1.5;"/>
            <line style="stroke:#000000;stroke-width:1.5;" x1="107.5" x2="175.8978" y1="31.6699" y2="31.6699"/>
            <text fill="#000000" font-family="sans-serif" font-size="14" font-weight="bold" lengthAdjust="spacing" textLength="55.3978" x="111.5" y="23.5679">Sistema</text>
        </g><!--entity UC1-->
        <g class="entity" data-entity="UC1" data-source-line="8" data-uid="ent0004" id="entity_UC1">
            <ellipse cx="1009.7611" cy="778.6002" fill="#F1F1F1" rx="119.3411" ry="26.2682" style="stroke:#181818;stroke-width:0.5;"/>
            <text fill="#000000" font-family="sans-serif" font-size="14" lengthAdjust="spacing" textLength="212.2532" x="903.6346" y="784.6342">Visualizzazione della home page</text>
        </g><!--entity UC2-->
        <g class="entity" data-entity="UC2" data-source-line="9" data-uid="ent0005" id="entity_UC2">
            <ellipse cx="631.5147" cy="778.5989" fill="#F1F1F1" rx="119.0347" ry="26.2069" style="stroke:#181818;stroke-width:0.5;"/>
            <text fill="#000000" font-family="sans-serif" font-size="14" lengthAdjust="spacing" textLength="211.5812" x="525.7241" y="784.6329">Visualizzazione del catalogo libri</text>
        </g><!--entity UC3-->
        <g class="entity" data-entity="UC3" data-source-line="10" data-uid="ent0006" id="entity_UC3">
            <ellipse cx="248.0461" cy="106.6032" fill="#F1F1F1" rx="117.5561" ry="25.9112" style="stroke:#181818;stroke-width:0.5;"/>
            <text fill="#000000" font-family="sans-serif" font-size="14" lengthAdjust="spacing" textLength="208.3332" x="143.8795" y="112.6372">Visualizzazione dei prestiti attivi</text>
        </g><!--entity UC4-->
        <g class="entity" data-entity="UC4" data-source-line="11" data-uid="ent0007" id="entity_UC4">
            <ellipse cx="631.5114" cy="74.6043" fill="#F1F1F1" rx="139.9114" ry="30.3823" style="stroke:#181818;stroke-width:0.5;"/>
            <text fill="#000000" font-family="sans-serif" font-size="14" lengthAdjust="spacing" textLength="256.689" x="503.1669" y="80.6382">Visualizzazione dello storico dei prestiti</text>
        </g><!--entity UC5-->
        <g class="entity" data-entity="UC5" data-source-line="12" data-uid="ent0008" id="entity_UC5">
            <ellipse cx="631.5077" cy="454.5995" fill="#F1F1F1" rx="137.2377" ry="29.8475" style="stroke:#181818;stroke-width:0.5;"/>
            <text fill="#000000" font-family="sans-serif" font-size="14" lengthAdjust="spacing" textLength="250.977" x="506.0192" y="460.6335">Visualizzazione dell'elenco degli utenti</text>
        </g><!--entity UC6-->
        <g class="entity" data-entity="UC6" data-source-line="13" data-uid="ent0009" id="entity_UC6">
            <ellipse cx="248.0513" cy="236.6022" fill="#F1F1F1" rx="101.8013" ry="22.7603" style="stroke:#181818;stroke-width:0.5;"/>
            <text fill="#000000" font-family="sans-serif" font-size="14" lengthAdjust="spacing" textLength="173.0813" x="161.5106" y="242.6362">Registrazione di un utente</text>
        </g><!--entity UC7-->
        <g class="entity" data-entity="UC7" data-source-line="14" data-uid="ent0010" id="entity_UC7">
            <ellipse cx="248.049" cy="318.5998" fill="#F1F1F1" rx="110.439" ry="24.4878" style="stroke:#181818;stroke-width:0.5;"/>
            <text fill="#000000" font-family="sans-serif" font-size="14" lengthAdjust="spacing" textLength="192.5692" x="151.7644" y="324.6337">Modifica dei dati di un utente</text>
        </g><!--entity UC8-->
        <g class="entity" data-entity="UC8" data-source-line="15" data-uid="ent0011" id="entity_UC8">
            <ellipse cx="248.0463" cy="562.5972" fill="#F1F1F1" rx="93.0263" ry="21.0053" style="stroke:#181818;stroke-width:0.5;"/>
            <text fill="#000000" font-family="sans-serif" font-size="14" lengthAdjust="spacing" textLength="152.7394" x="171.6766" y="568.6312">Rimozione di un utente</text>
        </g><!--entity UC17-->
        <g class="entity" data-entity="UC17" data-source-line="16" data-uid="ent0012" id="entity_UC17">
            <ellipse cx="248.0476" cy="407.5975" fill="#F1F1F1" rx="74.1776" ry="17.2355" style="stroke:#181818;stroke-width:0.5;"/>
            <text fill="#000000" font-family="sans-serif" font-size="14" lengthAdjust="spacing" textLength="105.7136" x="195.1908" y="413.6315">Ricerca di utenti</text>
        </g><!--entity UC9-->
        <g class="entity" data-entity="UC9" data-source-line="17" data-uid="ent0013" id="entity_UC9">
            <ellipse cx="248.0543" cy="483.6048" fill="#F1F1F1" rx="105.3143" ry="23.4629" style="stroke:#181818;stroke-width:0.5;"/>
            <text fill="#000000" font-family="sans-serif" font-size="14" lengthAdjust="spacing" textLength="181.0613" x="157.5236" y="489.6388">Registrazione di un prestito</text>
        </g><!--entity UC10-->
        <g class="entity" data-entity="UC10" data-source-line="18" data-uid="ent0014" id="entity_UC10">
            <ellipse cx="248.0488" cy="796.6057" fill="#F1F1F1" rx="92.4688" ry="20.8938" style="stroke:#181818;stroke-width:0.5;"/>
            <text fill="#000000" font-family="sans-serif" font-size="14" lengthAdjust="spacing" textLength="151.4234" x="172.3371" y="802.6397">Restituzione di un libro</text>
        </g><!--entity UC11-->
        <g class="entity" data-entity="UC11" data-source-line="19" data-uid="ent0015" id="entity_UC11">
            <ellipse cx="248.0491" cy="634.605" fill="#F1F1F1" rx="68.0691" ry="16.4831" style="stroke:#181818;stroke-width:0.5;"/>
            <text fill="#000000" font-family="sans-serif" font-size="14" lengthAdjust="spacing" textLength="92.0216" x="202.0383" y="640.639">Ricerca di libri</text>
        </g><!--entity UC12-->
        <g class="entity" data-entity="UC12" data-source-line="20" data-uid="ent0016" id="entity_UC12">
            <ellipse cx="248.05" cy="955.604" fill="#F1F1F1" rx="96.11" ry="21.622" style="stroke:#181818;stroke-width:0.5;"/>
            <text fill="#000000" font-family="sans-serif" font-size="14" lengthAdjust="spacing" textLength="159.9634" x="168.0684" y="961.6379">Registrazione di un libro</text>
        </g><!--entity UC13-->
        <g class="entity" data-entity="UC13" data-source-line="21" data-uid="ent0017" id="entity_UC13">
            <ellipse cx="248.0527" cy="875.6025" fill="#F1F1F1" rx="104.6027" ry="23.3205" style="stroke:#181818;stroke-width:0.5;"/>
            <text fill="#000000" font-family="sans-serif" font-size="14" lengthAdjust="spacing" textLength="179.4513" x="158.327" y="881.6365">Modifica dei dati di un libro</text>
        </g><!--entity UC14-->
        <g class="entity" data-entity="UC14" data-source-line="22" data-uid="ent0018" id="entity_UC14">
            <ellipse cx="248.0484" cy="713.6017" fill="#F1F1F1" rx="124.5484" ry="27.3097" style="stroke:#181818;stroke-width:0.5;"/>
            <text fill="#000000" font-family="sans-serif" font-size="14" lengthAdjust="spacing" textLength="223.6211" x="136.2378" y="719.6356">Rimozione di un libro dal catalogo</text>
        </g><!--entity UC15-->
        <g class="entity" data-entity="UC15" data-source-line="23" data-uid="ent0019" id="entity_UC15">
            <ellipse cx="248.0487" cy="1054.5997" fill="#F1F1F1" rx="114.3387" ry="25.2677" style="stroke:#181818;stroke-width:0.5;"/>
            <text fill="#000000" font-family="sans-serif" font-size="14" lengthAdjust="spacing" textLength="201.2352" x="147.4311" y="1060.6337">Salvataggio dell'archivio su file</text>
        </g><!--entity UC16-->
        <g class="entity" data-entity="UC16" data-source-line="24" data-uid="ent0020" id="entity_UC16">
            <ellipse cx="248.0539" cy="1140.6008" fill="#F1F1F1" rx="118.2439" ry="26.0488" style="stroke:#181818;stroke-width:0.5;"/>
            <text fill="#000000" font-family="sans-serif" font-size="14" lengthAdjust="spacing" textLength="209.8452" x="143.1313" y="1146.6347">Caricamento dell'archivio da file</text>
        </g><!--entity UCA1-->
        <g class="entity" data-entity="UCA1" data-source-line="26" data-uid="ent0021" id="entity_UCA1">
            <ellipse cx="631.5122" cy="267.6024" fill="#F1F1F1" rx="81.9522" ry="18.7904" style="stroke:#181818;stroke-width:0.5;"/>
            <text fill="#000000" font-family="sans-serif" font-size="14" lengthAdjust="spacing" textLength="125.8735" x="568.5754" y="273.6364">Matricola duplicata</text>
        </g><!--entity UCA2-->
        <g class="entity" data-entity="UCA2" data-source-line="27" data-uid="ent0022" id="entity_UCA2">
            <ellipse cx="631.5065" cy="157.6033" fill="#F1F1F1" rx="76.4565" ry="17.6913" style="stroke:#181818;stroke-width:0.5;"/>
            <text fill="#000000" font-family="sans-serif" font-size="14" lengthAdjust="spacing" textLength="111.7756" x="575.6187" y="163.6372">E-Mail non valida</text>
        </g><!--entity UCA3-->
        <g class="entity" data-entity="UCA3" data-source-line="28" data-uid="ent0023" id="entity_UCA3">
            <ellipse cx="631.5069" cy="919.6034" fill="#F1F1F1" rx="71.0069" ry="16.6014" style="stroke:#181818;stroke-width:0.5;"/>
            <text fill="#000000" font-family="sans-serif" font-size="14" lengthAdjust="spacing" textLength="97.0056" x="583.004" y="925.6373">ISBN duplicato</text>
        </g><!--entity UCA4-->
        <g class="entity" data-entity="UCA4" data-source-line="29" data-uid="ent0024" id="entity_UCA4">
            <ellipse cx="631.514" cy="601.6028" fill="#F1F1F1" rx="82.904" ry="18.9808" style="stroke:#181818;stroke-width:0.5;"/>
            <text fill="#000000" font-family="sans-serif" font-size="14" lengthAdjust="spacing" textLength="128.2535" x="567.3872" y="607.6367">Libro gi&#224; in prestito</text>
        </g><!--entity UCA5-->
        <g class="entity" data-entity="UCA5" data-source-line="30" data-uid="ent0025" id="entity_UCA5">
            <ellipse cx="631.5119" cy="1076.605" fill="#F1F1F1" rx="60.9019" ry="16.4831" style="stroke:#181818;stroke-width:0.5;"/>
            <text fill="#000000" font-family="sans-serif" font-size="14" lengthAdjust="spacing" textLength="81.8857" x="590.5691" y="1082.639">Errore di I/O</text>
        </g><!--entity G-->
        <g class="entity" data-entity="G" data-source-line="5" data-uid="ent0002" id="entity_G">
            <ellipse cx="33" cy="611.072" fill="#F1F1F1" rx="16" ry="16" style="stroke:#181818;stroke-width:0.5;"/>
            <path d="M33,631.072 C37,631.072 40,631.072 44,627.072 C52,627.072 60,635.072 60,643.072 L60,647.072 C60,651.072 56,655.072 52,655.072 L14,655.072 C10,655.072 6,651.072 6,647.072 L6,643.072 C6,635.072 14,627.072 22,627.072 C26,631.072 29,631.072 33,631.072" fill="#F1F1F1" style="stroke:#181818;stroke-width:0.5;"/>
            <text fill="#000000" font-family="sans-serif" font-size="14" lengthAdjust="spacing" textLength="51.9958" x="7.0021" y="670.5379">Gestore</text>
        </g><!--link UC2 to UC1-->
        <g class="link" data-entity-1="UC2" data-entity-2="UC1" data-source-line="33" data-uid="lnk26" id="link_UC2_UC1">
            <path d="M751.04,778.602 C795.41,778.602 839.8,778.602 884.18,778.602" fill="none" id="UC2-to-UC1" style="stroke:#181818;stroke-width:1;stroke-dasharray:7,7;"/>
            <polygon fill="#181818" points="890.18,778.602,881.18,774.602,885.18,778.602,881.18,782.602,890.18,778.602" style="stroke:#181818;stroke-width:1;"/>
            <text fill="#000000" font-family="sans-serif" font-size="13" lengthAdjust="spacing" textLength="57.5771" x="802.42" y="774.499">&#171;include&#187;</text>
        </g><!--link UC5 to UC1-->
        <g class="link" data-entity-1="UC5" data-entity-2="UC1" data-source-line="34" data-uid="lnk27" id="link_UC5_UC1">
            <path d="M670.12,483.712 C698.34,505.782 737.74,537.072 771.42,565.602 C848.94,631.272 932.8687,708.1541 976.6887,748.7541" fill="none" id="UC5-to-UC1" style="stroke:#181818;stroke-width:1;stroke-dasharray:7,7;"/>
            <polygon fill="#181818" points="981.09,752.832,977.2067,743.781,977.4223,749.4338,971.7695,749.6494,981.09,752.832" style="stroke:#181818;stroke-width:1;"/>
            <text fill="#000000" font-family="sans-serif" font-size="13" lengthAdjust="spacing" textLength="57.5771" x="802.42" y="589.729">&#171;include&#187;</text>
        </g><!--link UC4 to UC1-->
        <g class="link" data-entity-1="UC4" data-entity-2="UC1" data-source-line="35" data-uid="lnk28" id="link_UC4_UC1">
            <path d="M731.16,96.232 C745.97,102.822 760.06,111.412 771.42,122.602 C959.68,308.152 998.9843,648.1401 1006.6143,746.1401" fill="none" id="UC4-to-UC1" style="stroke:#181818;stroke-width:1;stroke-dasharray:7,7;"/>
            <polygon fill="#181818" points="1007.08,752.122,1010.3693,742.8386,1006.6919,747.1371,1002.3935,743.4596,1007.08,752.122" style="stroke:#181818;stroke-width:1;"/>
            <text fill="#000000" font-family="sans-serif" font-size="13" lengthAdjust="spacing" textLength="57.5771" x="802.42" y="159.919">&#171;include&#187;</text>
        </g><!--link UC15 to UC1-->
        <g class="link" data-entity-1="UC15" data-entity-2="UC1" data-source-line="36" data-uid="lnk29" id="link_UC15_UC1">
            <path d="M354.65,1045.042 C485.31,1032.012 699.36,1006.372 771.42,972.602 C861.05,930.592 941.6377,851.6098 981.2377,809.1498" fill="none" id="UC15-to-UC1" style="stroke:#181818;stroke-width:1;stroke-dasharray:7,7;"/>
            <polygon fill="#181818" points="985.33,804.762,976.2663,808.6156,981.9198,808.4185,982.1168,814.0719,985.33,804.762" style="stroke:#181818;stroke-width:1;"/>
            <text fill="#000000" font-family="sans-serif" font-size="13" lengthAdjust="spacing" textLength="57.5771" x="603.01" y="968.499">&#171;include&#187;</text>
        </g><!--link UC16 to UC1-->
        <g class="link" data-entity-1="UC16" data-entity-2="UC1" data-source-line="37" data-uid="lnk30" id="link_UC16_UC1">
            <path d="M327.75,1160.132 C435.23,1182.322 630.61,1206.272 771.42,1129.602 C904.5,1057.132 975.1661,879.6952 998.4461,810.9252" fill="none" id="UC16-to-UC1" style="stroke:#181818;stroke-width:1;stroke-dasharray:7,7;"/>
            <polygon fill="#181818" points="1000.37,805.242,993.6954,812.4842,998.7668,809.978,1001.273,815.0494,1000.37,805.242" style="stroke:#181818;stroke-width:1;"/>
            <text fill="#000000" font-family="sans-serif" font-size="13" lengthAdjust="spacing" textLength="57.5771" x="603.01" y="1125.499">&#171;include&#187;</text>
        </g><!--link UC3 to UC4-->
        <g class="link" data-entity-1="UC3" data-entity-2="UC4" data-source-line="39" data-uid="lnk31" id="link_UC3_UC4">
            <path d="M300.04,82.902 C329.34,70.592 367.25,56.842 402.6,50.602 C445.3,43.062 475.1651,43.5823 515.8151,49.7723" fill="none" id="UC3-to-UC4" style="stroke:#181818;stroke-width:1;"/>
            <polygon fill="none" points="533.61,52.482,516.7184,43.8406,514.9119,55.7039,533.61,52.482" style="stroke:#181818;stroke-width:1;"/>
        </g><!--link UC6 to UC5-->
        <g class="link" data-entity-1="UC6" data-entity-2="UC5" data-source-line="41" data-uid="lnk32" id="link_UC6_UC5">
            <path d="M339.91,246.702 C379.16,253.842 424.48,265.992 461.6,286.602 C524.51,321.542 576.3014,381.8211 605.3514,419.9111" fill="none" id="UC6-to-UC5" style="stroke:#181818;stroke-width:1;stroke-dasharray:7,7;"/>
            <polygon fill="#181818" points="608.99,424.682,606.7127,415.1,605.9579,420.7063,600.3516,419.9514,608.99,424.682" style="stroke:#181818;stroke-width:1;"/>
            <text fill="#000000" font-family="sans-serif" font-size="13" lengthAdjust="spacing" textLength="57.5771" x="403.6" y="259.209">&#171;include&#187;</text>
        </g><!--link UC7 to UC5-->
        <g class="link" data-entity-1="UC7" data-entity-2="UC5" data-source-line="42" data-uid="lnk33" id="link_UC7_UC5">
            <path d="M307.82,339.552 C375.32,363.622 480.4284,401.0973 552.9984,426.9673" fill="none" id="UC7-to-UC5" style="stroke:#181818;stroke-width:1;stroke-dasharray:7,7;"/>
            <polygon fill="#181818" points="558.65,428.982,551.5157,422.1922,553.9403,427.3031,548.8294,429.7277,558.65,428.982" style="stroke:#181818;stroke-width:1;"/>
            <text fill="#000000" font-family="sans-serif" font-size="13" lengthAdjust="spacing" textLength="57.5771" x="403.6" y="370.319">&#171;include&#187;</text>
        </g><!--link UC8 to UC5-->
        <g class="link" data-entity-1="UC8" data-entity-2="UC5" data-source-line="43" data-uid="lnk34" id="link_UC8_UC5">
            <path d="M319.47,548.902 C361.12,540.252 414.72,528.172 461.6,514.602 C495.23,504.872 526.2892,494.1742 556.8592,482.9242" fill="none" id="UC8-to-UC5" style="stroke:#181818;stroke-width:1;stroke-dasharray:7,7;"/>
            <polygon fill="#181818" points="562.49,480.852,552.6623,480.2064,557.7977,482.5788,555.4252,487.7141,562.49,480.852" style="stroke:#181818;stroke-width:1;"/>
            <text fill="#000000" font-family="sans-serif" font-size="13" lengthAdjust="spacing" textLength="57.5771" x="403.6" y="510.499">&#171;include&#187;</text>
        </g><!--link UC9 to UC5-->
        <g class="link" data-entity-1="UC9" data-entity-2="UC5" data-source-line="44" data-uid="lnk35" id="link_UC9_UC5">
            <path d="M353.12,485.912 C369.67,486.202 386.6,486.442 402.6,486.602 C428.82,486.862 435.49,489.052 461.6,486.602 C485.37,484.372 504.8808,481.5072 528.5808,477.1072" fill="none" id="UC9-to-UC5" style="stroke:#181818;stroke-width:1;stroke-dasharray:7,7;"/>
            <polygon fill="#181818" points="534.48,476.012,524.9011,473.722,529.564,476.9247,526.3613,481.5876,534.48,476.012" style="stroke:#181818;stroke-width:1;"/>
            <text fill="#000000" font-family="sans-serif" font-size="13" lengthAdjust="spacing" textLength="57.5771" x="403.6" y="482.499">&#171;include&#187;</text>
        </g><!--link UC17 to UC5-->
        <g class="link" data-entity-1="UC17" data-entity-2="UC5" data-source-line="45" data-uid="lnk36" id="link_UC17_UC5">
            <path d="M313.28,416.132 C340.78,419.742 373.25,423.952 402.6,427.602 C437.29,431.912 469.0216,435.7366 503.5716,439.8266" fill="none" id="UC17-to-UC5" style="stroke:#181818;stroke-width:1;stroke-dasharray:7,7;"/>
            <polygon fill="#181818" points="509.53,440.532,501.0626,435.5017,504.5647,439.9442,500.1222,443.4462,509.53,440.532" style="stroke:#181818;stroke-width:1;"/>
            <text fill="#000000" font-family="sans-serif" font-size="13" lengthAdjust="spacing" textLength="57.5771" x="403.6" y="423.499">&#171;include&#187;</text>
        </g><!--link UC10 to UC2-->
        <g class="link" data-entity-1="UC10" data-entity-2="UC2" data-source-line="47" data-uid="lnk37" id="link_UC10_UC2">
            <path d="M338.97,792.362 C391.5,789.882 452.3567,787.0045 508.7867,784.3445" fill="none" id="UC10-to-UC2" style="stroke:#181818;stroke-width:1;stroke-dasharray:7,7;"/>
            <polygon fill="#181818" points="514.78,784.062,505.6016,780.4902,509.7855,784.2974,505.9783,788.4813,514.78,784.062" style="stroke:#181818;stroke-width:1;"/>
            <text fill="#000000" font-family="sans-serif" font-size="13" lengthAdjust="spacing" textLength="57.5771" x="403.6" y="782.959">&#171;include&#187;</text>
        </g><!--link UC11 to UC2-->
        <g class="link" data-entity-1="UC11" data-entity-2="UC2" data-source-line="48" data-uid="lnk38" id="link_UC11_UC2">
            <path d="M297.33,646.282 C320.34,652.252 348.13,660.062 372.6,668.602 C446.13,694.272 523.0446,728.3025 574.4846,752.1025" fill="none" id="UC11-to-UC2" style="stroke:#181818;stroke-width:1;stroke-dasharray:7,7;"/>
            <polygon fill="#181818" points="579.93,754.622,573.4415,747.2125,575.3922,752.5224,570.0823,754.4731,579.93,754.622" style="stroke:#181818;stroke-width:1;"/>
            <text fill="#000000" font-family="sans-serif" font-size="13" lengthAdjust="spacing" textLength="57.5771" x="403.6" y="677.559">&#171;include&#187;</text>
        </g><!--link UC12 to UC2-->
        <g class="link" data-entity-1="UC12" data-entity-2="UC2" data-source-line="49" data-uid="lnk39" id="link_UC12_UC2">
            <path d="M310.18,938.762 C330.35,932.562 352.7,924.982 372.6,916.602 C452.16,883.102 534.6353,836.3127 584.5253,806.5927" fill="none" id="UC12-to-UC2" style="stroke:#181818;stroke-width:1;stroke-dasharray:7,7;"/>
            <polygon fill="#181818" points="589.68,803.522,579.9008,804.6916,585.3844,806.0809,583.9951,811.5645,589.68,803.522" style="stroke:#181818;stroke-width:1;"/>
            <text fill="#000000" font-family="sans-serif" font-size="13" lengthAdjust="spacing" textLength="57.5771" x="403.6" y="871.489">&#171;include&#187;</text>
        </g><!--link UC13 to UC2-->
        <g class="link" data-entity-1="UC13" data-entity-2="UC2" data-source-line="50" data-uid="lnk40" id="link_UC13_UC2">
            <path d="M318.13,858.032 C384.04,841.272 477.4051,817.5308 546.2551,800.0208" fill="none" id="UC13-to-UC2" style="stroke:#181818;stroke-width:1;stroke-dasharray:7,7;"/>
            <polygon fill="#181818" points="552.07,798.542,542.3618,796.8837,547.2243,799.7744,544.3336,804.6369,552.07,798.542" style="stroke:#181818;stroke-width:1;"/>
            <text fill="#000000" font-family="sans-serif" font-size="13" lengthAdjust="spacing" textLength="57.5771" x="403.6" y="820.089">&#171;include&#187;</text>
        </g><!--link UC14 to UC2-->
        <g class="link" data-entity-1="UC14" data-entity-2="UC2" data-source-line="51" data-uid="lnk41" id="link_UC14_UC2">
            <path d="M347.28,730.342 C405.45,740.252 472.8452,751.7342 530.3052,761.5242" fill="none" id="UC14-to-UC2" style="stroke:#181818;stroke-width:1;stroke-dasharray:7,7;"/>
            <polygon fill="#181818" points="536.22,762.532,528.0197,757.0772,531.291,761.6922,526.676,764.9635,536.22,762.532" style="stroke:#181818;stroke-width:1;"/>
            <text fill="#000000" font-family="sans-serif" font-size="13" lengthAdjust="spacing" textLength="57.5771" x="403.6" y="736.179">&#171;include&#187;</text>
        </g><!--reverse link UC6 to UCA1-->
        <g class="link" data-entity-1="UC6" data-entity-2="UCA1" data-source-line="53" data-uid="lnk42" id="link_UC6_UCA1">
            <path d="M352.0611,229.7261 C370.8111,228.7061 384.31,228.142 402.6,227.602 C428.81,226.832 435.55,224.562 461.6,227.602 C502.16,232.342 547.1,243.272 580.43,252.502" fill="none" id="UC6-backto-UCA1" style="stroke:#181818;stroke-width:1;stroke-dasharray:7,7;"/>
            <polygon fill="#181818" points="346.07,230.052,355.274,233.5572,351.0626,229.7804,354.8394,225.569,346.07,230.052" style="stroke:#181818;stroke-width:1;"/>
            <text fill="#000000" font-family="sans-serif" font-size="13" lengthAdjust="spacing" textLength="55.497" x="404.6" y="221.959">&#171;extend&#187;</text>
        </g><!--reverse link UC7 to UCA1-->
        <g class="link" data-entity-1="UC7" data-entity-2="UCA1" data-source-line="54" data-uid="lnk43" id="link_UC7_UCA1">
            <path d="M364.9257,317.934 C398.0557,316.674 428.42,314.382 461.6,309.602 C502.27,303.742 547.4,292.262 580.77,282.772" fill="none" id="UC7-backto-UCA1" style="stroke:#181818;stroke-width:1;stroke-dasharray:7,7;"/>
            <polygon fill="#181818" points="358.93,318.162,368.0755,321.8171,363.9264,317.972,367.7715,313.8228,358.93,318.162" style="stroke:#181818;stroke-width:1;"/>
            <text fill="#000000" font-family="sans-serif" font-size="13" lengthAdjust="spacing" textLength="55.497" x="404.6" y="305.499">&#171;extend&#187;</text>
        </g><!--reverse link UC6 to UCA2-->
        <g class="link" data-entity-1="UC6" data-entity-2="UCA2" data-source-line="55" data-uid="lnk44" id="link_UC6_UCA2">
            <path d="M290.7388,211.9532 C316.6088,195.7932 346.15,175.272 372.6,149.602 C388.54,134.122 382.72,119.542 402.6,109.602 C426.05,97.872 435.92,104.282 461.6,109.602 C475.83,112.552 477.84,117.922 491.6,122.602 C518.32,131.692 548.65,139.602 574.14,145.592" fill="none" id="UC6-backto-UCA2" style="stroke:#181818;stroke-width:1;stroke-dasharray:7,7;"/>
            <polygon fill="#181818" points="285.65,215.132,295.4023,213.7564,289.8906,212.483,291.164,206.9713,285.65,215.132" style="stroke:#181818;stroke-width:1;"/>
            <text fill="#000000" font-family="sans-serif" font-size="13" lengthAdjust="spacing" textLength="55.497" x="404.6" y="98.899">&#171;extend&#187;</text>
        </g><!--reverse link UC7 to UCA2-->
        <g class="link" data-entity-1="UC7" data-entity-2="UCA2" data-source-line="56" data-uid="lnk45" id="link_UC7_UCA2">
            <path d="M336.4501,299.887 C351.7101,293.857 360.92,287.832 372.6,276.602 C399.37,250.862 373.97,222.272 402.6,198.602 C445.28,163.312 508.02,154.132 556.87,153.182" fill="none" id="UC7-backto-UCA2" style="stroke:#181818;stroke-width:1;stroke-dasharray:7,7;"/>
            <polygon fill="#181818" points="330.87,302.092,340.7102,302.5046,335.5201,300.2545,337.7702,295.0644,330.87,302.092" style="stroke:#181818;stroke-width:1;"/>
            <text fill="#000000" font-family="sans-serif" font-size="13" lengthAdjust="spacing" textLength="55.497" x="404.6" y="165.049">&#171;extend&#187;</text>
        </g><!--reverse link UC12 to UCA3-->
        <g class="link" data-entity-1="UC12" data-entity-2="UCA3" data-source-line="57" data-uid="lnk46" id="link_UC12_UCA3">
            <path d="M292.2963,978.3154 C322.6363,993.2054 361.39,1009.602 402.6,1017.602 C428.34,1022.602 439,1030.902 461.6,1017.602 C485.26,1003.682 470.34,980.972 491.6,963.602 C513.93,945.352 543.92,934.632 570.31,928.352" fill="none" id="UC12-backto-UCA3" style="stroke:#181818;stroke-width:1;stroke-dasharray:7,7;"/>
            <polygon fill="#181818" points="286.91,975.672,293.2272,983.228,291.3986,977.8748,296.7517,976.0463,286.91,975.672" style="stroke:#181818;stroke-width:1;"/>
            <text fill="#000000" font-family="sans-serif" font-size="13" lengthAdjust="spacing" textLength="55.497" x="404.6" y="1013.499">&#171;extend&#187;</text>
        </g><!--reverse link UC13 to UCA3-->
        <g class="link" data-entity-1="UC13" data-entity-2="UCA3" data-source-line="58" data-uid="lnk47" id="link_UC13_UCA3">
            <path d="M329.2971,893.9627 C346.4071,899.9127 358.14,905.942 372.6,916.602 C391.06,930.222 382.2,948.102 402.6,958.602 C434.19,974.862 531.04,949.992 587.82,933.092" fill="none" id="UC13-backto-UCA3" style="stroke:#181818;stroke-width:1;stroke-dasharray:7,7;"/>
            <polygon fill="#181818" points="323.63,891.992,330.8168,898.7262,328.3526,893.6343,333.4445,891.17,323.63,891.992" style="stroke:#181818;stroke-width:1;"/>
            <text fill="#000000" font-family="sans-serif" font-size="13" lengthAdjust="spacing" textLength="55.497" x="404.6" y="954.499">&#171;extend&#187;</text>
        </g><!--reverse link UC14 to UCA4-->
        <g class="link" data-entity-1="UC14" data-entity-2="UCA4" data-source-line="59" data-uid="lnk48" id="link_UC14_UCA4">
            <path d="M330.0654,689.462 C346.5154,683.182 357.81,677.672 372.6,668.602 C388.14,659.072 386.26,648.702 402.6,640.602 C447.91,618.142 503.83,608.342 548.94,604.182" fill="none" id="UC14-backto-UCA4" style="stroke:#181818;stroke-width:1;stroke-dasharray:7,7;"/>
            <polygon fill="#181818" points="324.46,691.602,334.2947,692.129,329.1312,689.8187,331.4415,684.6551,324.46,691.602" style="stroke:#181818;stroke-width:1;"/>
            <text fill="#000000" font-family="sans-serif" font-size="13" lengthAdjust="spacing" textLength="55.497" x="404.6" y="616.589">&#171;extend&#187;</text>
        </g><!--reverse link UC15 to UCA5-->
        <g class="link" data-entity-1="UC15" data-entity-2="UCA5" data-source-line="60" data-uid="lnk49" id="link_UC15_UCA5">
            <path d="M335.4232,1073.8588 C358.8532,1078.3388 378.69,1081.362 402.6,1083.602 C460.73,1089.042 527.54,1085.892 573.72,1082.242" fill="none" id="UC15-backto-UCA5" style="stroke:#181818;stroke-width:1;stroke-dasharray:7,7;"/>
            <polygon fill="#181818" points="329.53,1072.732,337.6186,1078.3511,334.441,1073.671,339.1211,1070.4934,329.53,1072.732" style="stroke:#181818;stroke-width:1;"/>
            <text fill="#000000" font-family="sans-serif" font-size="13" lengthAdjust="spacing" textLength="55.497" x="404.6" y="1079.499">&#171;extend&#187;</text>
        </g><!--reverse link UC16 to UCA5-->
        <g class="link" data-entity-1="UC16" data-entity-2="UCA5" data-source-line="61" data-uid="lnk50" id="link_UC16_UCA5">
            <path d="M360.6846,1128.3255 C394.8846,1124.0955 426.96,1119.582 461.6,1113.602 C503.75,1106.322 551.31,1095.682 585.2,1087.682" fill="none" id="UC16-backto-UCA5" style="stroke:#181818;stroke-width:1;stroke-dasharray:7,7;"/>
            <polygon fill="#181818" points="354.73,1129.062,364.1529,1131.927,359.6922,1128.4482,363.1709,1123.9875,354.73,1129.062" style="stroke:#181818;stroke-width:1;"/>
            <text fill="#000000" font-family="sans-serif" font-size="13" lengthAdjust="spacing" textLength="55.497" x="404.6" y="1109.499">&#171;extend&#187;</text>
        </g><!--link G to UC3-->
        <g class="link" data-entity-1="G" data-entity-2="UC3" data-source-line="63" data-uid="lnk51" id="link_G_UC3">
            <path d="M35.71,594.412 C40.45,498.942 56.36,261.632 99.5,196.602 C120.07,165.602 155.33,143.512 186.22,128.982" fill="none" id="G-UC3" style="stroke:#181818;stroke-width:1;"/>
        </g><!--link G to UC6-->
        <g class="link" data-entity-1="G" data-entity-2="UC6" data-source-line="64" data-uid="lnk52" id="link_G_UC6">
            <path d="M36.08,594.262 C41.21,510.672 57.27,322.532 99.5,276.602 C113.69,261.172 133.18,251.452 153.33,245.392" fill="none" id="G-UC6" style="stroke:#181818;stroke-width:1;"/>
        </g><!--link G to UC7-->
        <g class="link" data-entity-1="G" data-entity-2="UC7" data-source-line="65" data-uid="lnk53" id="link_G_UC7">
            <path d="M39.44,594.082 C48.92,528.972 70.3,405.062 99.5,372.602 C115.92,354.352 139.03,342.252 162.1,334.242" fill="none" id="G-UC7" style="stroke:#181818;stroke-width:1;"/>
        </g><!--link G to UC8-->
        <g class="link" data-entity-1="G" data-entity-2="UC8" data-source-line="66" data-uid="lnk54" id="link_G_UC8">
            <path d="M60.77,618.952 C72.39,612.622 86.34,605.642 99.5,600.602 C124.7,590.962 153.24,582.972 178.46,576.842" fill="none" id="G-UC8" style="stroke:#181818;stroke-width:1;"/>
        </g><!--link G to UC9-->
        <g class="link" data-entity-1="G" data-entity-2="UC9" data-source-line="67" data-uid="lnk55" id="link_G_UC9">
            <path d="M48.68,594.302 C59.33,570.462 76.01,541.502 99.5,523.602 C116.49,510.652 137.39,501.892 158.05,495.962" fill="none" id="G-UC9" style="stroke:#181818;stroke-width:1;"/>
        </g><!--link G to UC10-->
        <g class="link" data-entity-1="G" data-entity-2="UC10" data-source-line="68" data-uid="lnk56" id="link_G_UC10">
            <path d="M45.68,674.892 C55.67,702.372 72.75,737.482 99.5,758.602 C117.87,773.112 141.17,782.132 163.8,787.722" fill="none" id="G-UC10" style="stroke:#181818;stroke-width:1;"/>
        </g><!--link G to UC11-->
        <g class="link" data-entity-1="G" data-entity-2="UC11" data-source-line="69" data-uid="lnk57" id="link_G_UC11">
            <path d="M60.98,634.602 C90.65,634.602 139.46,634.602 179.64,634.602" fill="none" id="G-UC11" style="stroke:#181818;stroke-width:1;"/>
        </g><!--link G to UC12-->
        <g class="link" data-entity-1="G" data-entity-2="UC12" data-source-line="70" data-uid="lnk58" id="link_G_UC12">
            <path d="M38.25,674.882 C46.38,744.322 66.34,882.422 99.5,916.602 C115,932.572 136.21,942.262 157.72,948.072" fill="none" id="G-UC12" style="stroke:#181818;stroke-width:1;"/>
        </g><!--link G to UC13-->
        <g class="link" data-entity-1="G" data-entity-2="UC13" data-source-line="71" data-uid="lnk59" id="link_G_UC13">
            <path d="M36.25,675.032 C40.95,720.182 55.39,792.452 99.5,834.602 C114.69,849.112 134.55,858.572 154.76,864.712" fill="none" id="G-UC13" style="stroke:#181818;stroke-width:1;"/>
        </g><!--link G to UC14-->
        <g class="link" data-entity-1="G" data-entity-2="UC14" data-source-line="72" data-uid="lnk60" id="link_G_UC14">
            <path d="M60.88,649.972 C72.52,656.252 86.45,663.282 99.5,668.602 C121.32,677.502 145.57,685.602 168.01,692.402" fill="none" id="G-UC14" style="stroke:#181818;stroke-width:1;"/>
        </g><!--link G to UC15-->
        <g class="link" data-entity-1="G" data-entity-2="UC15" data-source-line="73" data-uid="lnk61" id="link_G_UC15">
            <path d="M36.52,675.092 C42.48,758.562 59.99,945.972 99.5,994.602 C115.89,1014.772 140.14,1028.222 164.26,1037.172" fill="none" id="G-UC15" style="stroke:#181818;stroke-width:1;"/>
        </g><!--link G to UC16-->
        <g class="link" data-entity-1="G" data-entity-2="UC16" data-source-line="74" data-uid="lnk62" id="link_G_UC16">
            <path d="M34.28,674.922 C35.79,775.642 45.02,1034.712 99.5,1097.602 C111.55,1111.522 127.83,1121.052 145.18,1127.562" fill="none" id="G-UC16" style="stroke:#181818;stroke-width:1;"/>
        </g><!--link G to UC17-->
        <g class="link" data-entity-1="G" data-entity-2="UC17" data-source-line="75" data-uid="lnk63" id="link_G_UC17">
            <path d="M36.59,594.282 C41.62,550.562 56.36,481.792 99.5,442.602 C119.86,424.102 148.19,414.872 174.58,410.432" fill="none" id="G-UC17" style="stroke:#181818;stroke-width:1;"/>
        </g><!--SRC=[ZPN1ZjCm48RlVehHNZYrR9ecRL5LgQnMrKeiI5Hm7n8t7QqRLubJO85tuLruCIRPE6mSJCWbKttpZyT_ncxvGFaP2pm19aONU_DLIS3FijGdAOII1mD6Gq7PqK1AXKmCwLo89XbsikGNvvUm4-ACoGDc4lPK6db2-2Q0dwgK2POIhZvIMQ6YnqTyv18IKgaKmf7NWJFBhkeg7sw2KH4aQ53fJ8EYJmMrkjcOZk1SSBja2D0OkbXXEDwbXdgRbEXUcLO_7zU_a4hcZJfJ19MHUQUE-khtCcFp2glbvFmftzeJz_FlTKe7Ih1fB4NUsryq2sSDEcbl_QMRcyYYBk-q7Ip6-svzqgravIfgM3qNr9_JPWVNtaQUV_KW6E-ZLtRsV_xrDE6__MjoMVndCAtG6OqzgWjdP1dffx708Zdo8F9uLN0WrHq1PoXka6SFJso_gqknfuk5ipiqzTJoAKkhiwAwlJPrw_XsExb7Kf3h72uylMcNv_Xrjt_zjYjczxbr37hJ69BHhvz0Wp7OEgRS5aLzWx2LTo_VsPn8_122ppHCfvjwO_0ArclA4rMbShDX4dd9t4k2MkHZiOyn364o-RvfZZh_Yji5ea6HXPSilMJb9O6lNCskMpORoW8_clbHw4Tp3sgyM4-dpJWrJ7xXEo9jlV2HJZFpQWQ4EszHE42X7yqjciE0HPP50nHxaDZn83J_66qGss1XWwKDLZRWYyn6GHVDkgYhnPU5ZQ8kwXO85k8t]-->
    </g>
</svg>